<svg preserveAspectRatio="none" overflow="visible" style="display: block;" width="70.422" height="20.0002" viewBox="0 0 70.422 20.0002" fill="none" xmlns="http://www.w3.org/2000/svg">
<g id="Group">
<path id="Vector" d="M18.3098 0H21.5492V19.9996H18.3098V0Z" fill="#141414"/>
<path id="Vector_2" d="M32.8167 13.662C32.8167 16.7605 30.2815 17.0422 29.4365 17.0422C27.4646 17.0422 27.183 15.2113 27.183 14.2254V6.47902H23.9435V14.0845C23.9435 15.9155 24.5069 17.6056 25.6337 18.5915C26.6196 19.5774 27.8872 19.9999 29.4365 19.9999C30.5632 19.9999 31.9717 19.7182 32.8167 18.8732V19.9999H36.0561V6.47902H32.8167V13.662Z" fill="#141414"/>
<path id="Vector_3" d="M42.3941 1.54962H39.1547V6.47911H36.7604V9.57765H39.1547V20H42.3941V9.57765H44.7885V6.47911H42.3941V1.54962Z" fill="#141414"/>
<path id="Vector_4" d="M54.9292 15.9148C54.225 16.4782 53.2391 16.9007 52.2532 16.9007C49.9997 16.9007 48.4504 15.2106 48.4504 12.9571C48.4504 10.7037 49.9997 9.1544 52.2532 9.1544C53.2391 9.1544 54.225 9.43608 54.9292 10.1403L55.3517 10.5628L57.6052 8.45018L57.0419 8.02765C55.7743 6.90091 54.0841 6.1967 52.2532 6.1967C48.3095 6.1967 45.3518 9.1544 45.3518 13.098C45.3518 17.0416 48.3095 19.9993 52.2532 19.9993C54.0841 19.9993 55.7743 19.2951 57.0419 18.1683L57.6052 17.7458L55.3517 15.4923L54.9292 15.9148Z" fill="#141414"/>
<path id="Vector_5" d="M69.0136 7.6055C68.0277 6.6196 67.0418 6.19708 65.4925 6.19708C64.3658 6.19708 63.239 6.47876 62.3939 7.32381V0H59.1545V19.9996H62.3939V12.535C62.3939 9.43646 64.5066 9.15477 65.3517 9.15477C67.3235 9.15477 67.1826 10.9857 67.1826 11.9716V19.8588H70.422V12.1125C70.422 10.2815 69.9995 8.5914 69.0136 7.6055Z" fill="#141414"/>
<path id="Vector_6" d="M52.1123 15.3521C53.3568 15.3521 54.3658 14.3432 54.3658 13.0986C54.3658 11.854 53.3568 10.8451 52.1123 10.8451C50.8677 10.8451 49.8588 11.854 49.8588 13.0986C49.8588 14.3432 50.8677 15.3521 52.1123 15.3521Z" fill="#FF5500"/>
<path id="Vector_7" d="M13.8027 15.0698C12.676 16.1966 10.9858 16.9008 9.15486 16.9008C5.63376 16.9008 3.09857 14.0839 3.09857 10.2812C3.09857 6.47843 5.63376 3.66158 9.29571 3.66158C10.9858 3.66158 12.676 4.36579 13.9436 5.63337L14.3661 6.0559L16.4788 3.94326L16.0562 3.52073C14.2252 1.68978 11.8309 0.703879 9.29571 0.703879C3.94363 0.563036 0 4.78832 0 10.2812C0 15.774 3.94363 19.9993 9.15486 19.9993C11.6901 19.9993 14.2252 19.0134 15.9154 17.1825L16.3379 16.7599L14.2252 14.6473L13.8027 15.0698Z" fill="#141414"/>
</g>
</svg>
