<svg width="123" height="41" viewBox="0 0 123 41" fill="none" xmlns="http://www.w3.org/2000/svg">
<path opacity="0.5" d="M100.757 40.1326C100.419 40.1326 100.16 39.8697 100.16 39.529C100.16 39.1898 100.421 38.927 100.757 38.927C101.094 38.927 101.355 39.1898 101.355 39.529C101.355 39.8697 101.096 40.1326 100.757 40.1326ZM100.757 40.0531C101.05 40.0531 101.269 39.8275 101.269 39.529C101.269 39.2304 101.049 39.0065 100.757 39.0065C100.466 39.0065 100.246 39.232 100.246 39.529C100.246 39.8275 100.465 40.0531 100.757 40.0531ZM100.46 39.5322C100.46 39.3375 100.586 39.2028 100.77 39.2028C100.911 39.2028 101.016 39.2856 101.042 39.4138H100.943C100.921 39.3326 100.861 39.2904 100.771 39.2904C100.643 39.2904 100.556 39.3894 100.556 39.5306C100.556 39.6734 100.64 39.7691 100.763 39.7691C100.856 39.7691 100.921 39.7253 100.947 39.6474H101.044C101.015 39.774 100.903 39.8567 100.763 39.8567C100.585 39.8567 100.46 39.7237 100.46 39.5322ZM102.71 40.1099H101.944V40.0174L102.316 39.6929C102.53 39.5063 102.585 39.4251 102.585 39.2872C102.585 39.1298 102.491 39.0341 102.337 39.0341C102.176 39.0341 102.071 39.1509 102.066 39.331H101.949C101.955 39.0876 102.11 38.927 102.338 38.927C102.557 38.927 102.703 39.0681 102.703 39.2807C102.703 39.4495 102.627 39.5614 102.395 39.7642L102.124 40.0011H102.71V40.1099ZM102.871 39.529C102.871 39.1687 103.048 38.9254 103.337 38.9254C103.624 38.9254 103.801 39.1687 103.801 39.529C103.801 39.8908 103.628 40.131 103.337 40.131C103.045 40.131 102.871 39.8908 102.871 39.529ZM102.987 39.529C102.987 39.8308 103.115 40.0255 103.337 40.0255C103.559 40.0255 103.688 39.8308 103.688 39.529C103.688 39.2255 103.559 39.0325 103.337 39.0325C103.115 39.0325 102.987 39.2255 102.987 39.529ZM104.729 40.1099H103.963V40.0174L104.334 39.6929C104.549 39.5063 104.604 39.4251 104.604 39.2872C104.604 39.1298 104.51 39.0341 104.355 39.0341C104.195 39.0341 104.089 39.1509 104.085 39.331H103.968C103.974 39.0876 104.128 38.927 104.357 38.927C104.576 38.927 104.722 39.0681 104.722 39.2807C104.722 39.4495 104.646 39.5614 104.414 39.7642L104.143 40.0011H104.729V40.1099ZM105.215 39.4868H105.122V39.4057L105.481 39.0519H104.924V38.9481H105.628V39.0422L105.281 39.3878C105.499 39.3992 105.654 39.5371 105.654 39.748C105.654 39.9784 105.486 40.1293 105.25 40.1293C105.022 40.1293 104.867 39.9882 104.867 39.7561H104.983C104.983 39.9233 105.086 40.0239 105.25 40.0239C105.424 40.0239 105.536 39.9135 105.536 39.7448C105.536 39.5858 105.422 39.4868 105.215 39.4868ZM106.76 39.6831H106.434V40.1099H106.318V38.9481H106.76C106.984 38.9481 107.126 39.0941 107.126 39.3132C107.126 39.5241 106.983 39.6831 106.76 39.6831ZM106.744 39.0535H106.434V39.5776H106.738C106.907 39.5776 107.004 39.4706 107.004 39.3115C107.004 39.1509 106.905 39.0535 106.744 39.0535ZM107.345 39.1087C107.3 39.1087 107.262 39.0714 107.262 39.026C107.262 38.9805 107.3 38.9416 107.345 38.9416C107.39 38.9416 107.429 38.9805 107.429 39.026C107.429 39.0714 107.39 39.1087 107.345 39.1087ZM107.29 40.1099V39.3245H107.402V40.1099H107.29ZM107.747 40.1099H107.635V39.3245H107.733L107.749 39.4608C107.801 39.3602 107.905 39.3034 108.018 39.3034C108.234 39.3034 108.323 39.4316 108.323 39.6296V40.1099H108.211V39.6539C108.211 39.4706 108.129 39.4057 107.999 39.4057C107.838 39.4057 107.747 39.5225 107.747 39.6993V40.1099ZM108.577 40.1099H108.446L108.727 39.7172L108.447 39.3245H108.579L108.801 39.6393L109.022 39.3245H109.152L108.873 39.7188L109.15 40.1099H109.017L108.796 39.7951L108.577 40.1099ZM109.34 39.1087C109.295 39.1087 109.257 39.0714 109.257 39.026C109.257 38.9805 109.295 38.9416 109.34 38.9416C109.385 38.9416 109.424 38.9805 109.424 39.026C109.424 39.0714 109.385 39.1087 109.34 39.1087ZM109.285 40.1099V39.3245H109.397V40.1099H109.285ZM109.81 40.1099H109.7V39.4186H109.543V39.3245H109.7V39.0763H109.81V39.3245H109.968V39.4186H109.81V40.1099Z" fill="white"/>
<g opacity="0.5">
<path d="M112.848 39.6831H112.522V40.1099H112.405V38.9481H112.848C113.072 38.9481 113.214 39.0941 113.214 39.3132C113.214 39.5241 113.071 39.6831 112.848 39.6831ZM112.832 39.0535H112.522V39.5776H112.826C112.994 39.5776 113.092 39.4706 113.092 39.3115C113.092 39.1509 112.993 39.0535 112.832 39.0535ZM113.788 39.3148V39.4154H113.727C113.582 39.4154 113.49 39.5127 113.49 39.662V40.1099H113.378V39.3245H113.483L113.491 39.4462C113.522 39.3618 113.605 39.3067 113.715 39.3067C113.74 39.3067 113.761 39.3083 113.788 39.3148ZM113.992 39.1087C113.947 39.1087 113.91 39.0714 113.91 39.026C113.91 38.9805 113.947 38.9416 113.992 38.9416C114.038 38.9416 114.077 38.9805 114.077 39.026C114.077 39.0714 114.038 39.1087 113.992 39.1087ZM113.937 40.1099V39.3245H114.049V40.1099H113.937ZM114.502 40.1099L114.18 39.3245H114.3L114.503 39.8308C114.524 39.8876 114.545 39.9411 114.56 39.993C114.575 39.9395 114.596 39.8876 114.618 39.8308L114.825 39.3245H114.94L114.614 40.1099H114.502ZM115.262 40.1293C115.095 40.1293 114.996 40.0352 114.996 39.8973C114.996 39.7529 115.107 39.662 115.29 39.6474L115.55 39.6263V39.6004C115.55 39.4462 115.457 39.3975 115.342 39.3975C115.206 39.3975 115.124 39.4592 115.124 39.5647H115.022C115.022 39.4057 115.152 39.3034 115.345 39.3034C115.527 39.3034 115.66 39.3943 115.66 39.602V40.1099H115.566L115.551 39.9719C115.503 40.0709 115.395 40.1293 115.262 40.1293ZM115.288 40.0385C115.454 40.0385 115.55 39.9233 115.55 39.7529V39.7107L115.318 39.7285C115.17 39.7415 115.11 39.8064 115.11 39.8941C115.11 39.9898 115.181 40.0385 115.288 40.0385ZM115.829 39.7188C115.829 39.4722 115.98 39.3034 116.209 39.3034C116.391 39.3034 116.524 39.4089 116.555 39.5712H116.443C116.414 39.4624 116.319 39.4024 116.211 39.4024C116.052 39.4024 115.94 39.5241 115.94 39.7172C115.94 39.9038 116.044 40.0287 116.203 40.0287C116.319 40.0287 116.414 39.9638 116.444 39.8632H116.558C116.521 40.0239 116.381 40.1293 116.203 40.1293C115.98 40.1293 115.829 39.9655 115.829 39.7188ZM116.632 40.4522V40.3597H116.718C116.786 40.3597 116.855 40.3549 116.894 40.2494L116.928 40.1569L116.61 39.3245H116.728L116.981 40.0093L117.229 39.3245H117.345L116.984 40.29C116.939 40.4133 116.863 40.4636 116.751 40.4636C116.704 40.4636 116.668 40.4603 116.632 40.4522ZM118.393 39.6831H118.067V40.1099H117.95V38.9481H118.393C118.617 38.9481 118.758 39.0941 118.758 39.3132C118.758 39.5241 118.615 39.6831 118.393 39.6831ZM118.377 39.0535H118.067V39.5776H118.37C118.539 39.5776 118.636 39.4706 118.636 39.3115C118.636 39.1509 118.537 39.0535 118.377 39.0535ZM118.832 39.7172C118.832 39.477 119.001 39.3034 119.231 39.3034C119.462 39.3034 119.631 39.477 119.631 39.7172C119.631 39.9557 119.462 40.1293 119.231 40.1293C119.001 40.1293 118.832 39.9557 118.832 39.7172ZM118.946 39.7156C118.946 39.9005 119.063 40.0287 119.231 40.0287C119.399 40.0287 119.517 39.9005 119.517 39.7156C119.517 39.5338 119.399 39.404 119.231 39.404C119.063 39.404 118.946 39.5338 118.946 39.7156ZM119.926 40.1099H119.814V38.927H119.926V40.1099ZM120.22 39.1087C120.174 39.1087 120.137 39.0714 120.137 39.026C120.137 38.9805 120.174 38.9416 120.22 38.9416C120.265 38.9416 120.304 38.9805 120.304 39.026C120.304 39.0714 120.265 39.1087 120.22 39.1087ZM120.165 40.1099V39.3245H120.277V40.1099H120.165ZM120.455 39.7188C120.455 39.4722 120.606 39.3034 120.835 39.3034C121.016 39.3034 121.149 39.4089 121.18 39.5712H121.068C121.039 39.4624 120.945 39.4024 120.836 39.4024C120.677 39.4024 120.565 39.5241 120.565 39.7172C120.565 39.9038 120.669 40.0287 120.828 40.0287C120.945 40.0287 121.039 39.9638 121.07 39.8632H121.183C121.146 40.0239 121.007 40.1293 120.828 40.1293C120.606 40.1293 120.455 39.9655 120.455 39.7188ZM121.258 40.4522V40.3597H121.344C121.412 40.3597 121.48 40.3549 121.519 40.2494L121.553 40.1569L121.235 39.3245H121.353L121.607 40.0093L121.855 39.3245H121.97L121.61 40.29C121.564 40.4133 121.488 40.4636 121.376 40.4636C121.329 40.4636 121.293 40.4603 121.258 40.4522Z" fill="white"/>
<path d="M112.264 40.4912H121.985V40.621H112.264V40.4912Z" fill="white"/>
</g>
<path d="M28.4138 23.8003C28.5052 22.5975 28.5809 21.3842 28.4138 20.1856C28.4154 20.1738 28.4154 20.1618 28.4138 20.1499L28.4012 20.0606C28.2944 20.0549 28.1915 20.0184 28.105 19.9556C28.085 19.9419 28.0682 19.9251 28.0493 19.9104C27.4401 19.5869 26.8381 19.2192 26.3686 18.715C25.8108 18.1215 25.6207 17.3494 25.4389 16.5784C25.2404 15.738 24.9967 14.8913 24.6101 14.114C24.2224 13.3603 23.7767 12.6378 23.2771 11.9532C22.7296 11.1831 22.1331 10.4491 21.4913 9.75563C21.508 9.71526 21.508 9.66993 21.4913 9.62957C21.4083 9.43733 21.4283 9.20939 21.4031 9.0098C21.3757 8.80329 21.3041 8.60513 21.193 8.42889C20.965 8.05913 20.632 7.7503 20.339 7.43306C20.0081 7.0759 19.6793 6.71665 19.3473 6.36159C19.0618 6.04259 18.7399 5.75808 18.3882 5.51387C17.7059 5.06661 16.9092 4.82521 16.0933 4.8185C15.2774 4.8118 14.4769 5.04007 13.7872 5.47605C13.5969 5.59762 13.4164 5.7339 13.2473 5.88363C13.1643 5.95821 13.0887 6.04855 13.0004 6.11683C12.903 6.17444 12.7911 6.20288 12.6779 6.19877C12.2193 6.25037 11.7873 6.44055 11.4394 6.74396C11.4177 6.76057 11.4017 6.78362 11.3938 6.80983C11.3859 6.83604 11.3864 6.86408 11.3953 6.88997C11.1584 6.90039 10.9232 6.93559 10.6936 6.99501C10.4261 7.07357 10.1637 7.16865 9.90788 7.27969C9.64842 7.38474 9.3732 7.43726 9.12214 7.55911C8.88828 7.68395 8.67558 7.84491 8.49187 8.03602C8.28177 8.23666 8.07903 8.44045 7.88154 8.65054C7.49398 9.05496 7.15711 9.50507 6.87836 9.99093C6.57583 10.533 6.288 11.159 6.41616 11.7914C6.42125 11.8203 6.43477 11.8469 6.45502 11.8681C6.44481 11.8826 6.43602 11.8981 6.42876 11.9143C6.18821 12.491 5.97076 13.0698 5.95711 13.7001C5.96503 14.0245 5.95134 14.3492 5.91614 14.6718C5.86992 14.9712 5.79429 15.2642 5.72496 15.5573C5.65226 15.8479 5.59927 16.143 5.56634 16.4408C5.5418 16.748 5.55521 17.057 5.60626 17.361C5.71917 17.9997 5.87035 18.6311 6.059 19.2518C6.23021 19.857 6.44362 20.4495 6.69767 21.025C6.92457 21.5376 7.16408 22.088 7.63153 22.4273C8.06222 22.7425 8.61056 22.8307 9.12739 22.8811C9.66464 22.9337 10.2057 22.9337 10.743 22.8811H10.7787C10.9668 23.2624 11.159 23.6826 11.0939 24.1154C11.0928 24.1262 11.0928 24.1371 11.0939 24.148C10.7682 24.2845 10.4373 24.4116 10.1075 24.5387C9.40682 24.8108 8.7072 25.0881 8.00025 25.3455C6.58318 25.8602 5.12304 26.2153 3.6587 26.5661C2.86035 26.7573 2.06304 26.9527 1.2752 27.1828C1.2815 27.1376 1.28571 27.0935 1.28991 27.0483C1.17856 27.083 1.06616 27.1155 0.953765 27.146C0.925403 27.3928 0.877083 27.6397 0.823509 27.8908C0.71111 28.416 0.613417 28.9412 0.718463 29.478C0.823509 30.0379 1.11764 30.5453 1.12289 31.1251C1.12919 31.7333 0.949558 32.3332 0.895985 32.9372C0.847316 33.545 0.843807 34.1556 0.885483 34.7639C0.919098 35.3259 0.953767 35.8963 1.03465 36.4541C1.08823 36.8228 1.19117 37.2651 1.479 37.5266C1.50338 37.5481 1.52898 37.568 1.55568 37.5865C1.5674 37.6123 1.58656 37.634 1.61071 37.6488C1.63486 37.6636 1.6629 37.6708 1.69119 37.6695H1.73321C1.79634 37.6875 1.86199 37.6949 1.92754 37.6916C1.95475 37.6911 1.98129 37.6831 2.00423 37.6684L12.076 37.6506C12.9437 37.6506 13.8114 37.639 14.6791 37.6642C15.5047 37.6884 16.322 37.7777 17.1445 37.8491C17.9603 37.92 18.7808 37.9179 19.5963 37.8428C20.4135 37.7672 21.2297 37.7199 22.0512 37.7073C23.8779 37.6768 25.7121 37.7567 27.5325 37.5687H27.5388C27.561 37.5713 27.5835 37.5686 27.6045 37.561C27.6254 37.5533 27.6443 37.5408 27.6596 37.5245C28.3298 36.8585 28.4243 35.7923 28.3949 34.8984C28.3508 33.7177 27.981 32.5821 27.8981 31.4067C27.847 30.7783 27.9205 30.1461 28.1144 29.5463C28.2183 29.26 28.2967 28.9651 28.3487 28.665C28.3881 28.3355 28.3934 28.0028 28.3645 27.6723C28.3149 27.0345 28.2974 26.3947 28.3119 25.7552C28.3109 25.0934 28.3645 24.4474 28.4138 23.8003Z" fill="#1A1A1A"/>
<path d="M28.1428 20.0084C28.2337 19.9731 28.3317 19.9604 28.4286 19.9716C28.5168 18.9621 28.5777 17.9421 28.3855 16.941C28.2804 16.3822 28.0945 15.8423 28.0315 15.275C27.9781 14.7392 27.9693 14.1998 28.0052 13.6626C28.0651 12.5585 28.2248 11.4566 28.146 10.3462C28.1071 9.79476 28.0105 9.24747 27.9947 8.69493C27.9769 8.11718 28.0903 7.55833 28.1891 6.99213C28.3739 5.94167 28.521 4.89121 28.3561 3.8334C28.2741 3.30817 28.021 2.79344 27.8487 2.29657C27.7121 1.90475 27.5451 1.47197 27.2058 1.20935C27.0631 1.09174 26.8809 1.03311 26.6963 1.04548C26.6654 1.04753 26.6357 1.05888 26.6113 1.07804C25.7404 1.05073 24.8129 0.828032 23.9441 0.89211C23.4809 0.926775 23.0733 1.20725 22.6122 1.27343C22.1825 1.33015 21.7403 1.39528 21.318 1.26187C20.9377 1.14107 20.6005 0.927825 20.1972 0.884756C19.757 0.837485 19.2948 0.93938 18.8578 0.989802C17.925 1.1043 16.9912 1.21986 16.0541 1.29549C15.1272 1.37689 14.196 1.39899 13.2662 1.36166C12.3324 1.31649 11.4332 1.01921 10.4983 0.994002C9.56335 0.968791 8.60743 1.15158 7.67463 1.16313C6.74182 1.17469 5.663 0.982447 4.72073 0.994002C3.79528 1.00556 2.99483 1.2041 2.06937 1.23246C1.48217 1.24716 0.662806 1.10115 0.203755 1.51923C0.106063 1.60852 0.0987145 1.8995 0.0514438 2.02241C0.0509607 2.02975 0.0509607 2.03712 0.0514438 2.04446C0.033178 2.05823 0.0191482 2.07686 0.0109744 2.09823C0.00280066 2.11959 0.000806312 2.14282 0.00521691 2.16527C0.251024 4.2956 0.11027 6.41542 0.209013 8.55731C0.260485 9.62878 0.61449 10.7192 0.629197 11.7917C0.63655 12.3169 0.646004 12.8495 0.629197 13.3789C0.608771 13.9159 0.548723 14.4506 0.449559 14.9788C0.358169 15.4767 0.26048 15.9809 0.268883 16.4904C0.294737 16.98 0.365057 17.4663 0.478975 17.9432C0.58857 18.4473 0.641422 18.962 0.636544 19.4779C0.624989 19.9916 0.575622 20.5063 0.628145 21.0189C0.680668 21.5315 0.881298 21.9885 0.961133 22.4896C1.03782 22.9623 0.896011 23.4192 0.784663 23.8741C0.673314 24.3289 0.606077 24.7712 0.737384 25.2208C0.868692 25.6704 1.12396 26.0758 1.11135 26.5601C1.09684 26.8307 1.05923 27.0995 0.998948 27.3637H1.31409L1.32039 27.3301C2.76268 26.9099 4.23752 26.6053 5.69031 26.224C7.16095 25.8374 8.57802 25.3006 9.99719 24.7533C10.764 24.456 11.5435 24.1735 12.262 23.769C12.2981 23.7479 12.3243 23.7132 12.3348 23.6727C12.3453 23.6322 12.3394 23.5892 12.3182 23.5532C12.297 23.5171 12.2624 23.4909 12.2219 23.4803C12.1814 23.4698 12.1384 23.4758 12.1023 23.497C11.8765 23.6241 11.6433 23.7386 11.408 23.8457C11.4195 23.4329 11.2745 23.0484 11.0991 22.6765C12.1758 22.5169 13.2084 22.1219 14.0583 21.4254C14.2148 21.2973 13.991 21.0756 13.8356 21.2027C13.0425 21.853 12.0592 22.2185 11.0529 22.3688C10.5388 22.4419 10.0187 22.4637 9.50032 22.4339C9.00871 22.4087 8.47718 22.3656 8.02968 22.1429C7.53176 21.895 7.29435 21.4149 7.0664 20.9317C6.81376 20.3874 6.60032 19.8257 6.42773 19.251C6.25335 18.6701 6.09999 18.0776 5.97289 17.4852C5.90277 17.1855 5.86543 16.879 5.86153 16.5713C5.86602 16.2837 5.90124 15.9974 5.96658 15.7173C6.03591 15.4021 6.12205 15.087 6.18193 14.7624C6.23934 14.4439 6.26642 14.1206 6.26281 13.797C6.25247 13.4636 6.28781 13.1303 6.36786 12.8064C6.46438 12.4775 6.58264 12.1553 6.72186 11.8421C6.73056 11.8144 6.7307 11.7848 6.72226 11.7571C6.71383 11.7293 6.69721 11.7048 6.67459 11.6866C6.69007 11.6683 6.70115 11.6466 6.70698 11.6233C6.7128 11.6 6.71322 11.5757 6.70821 11.5522C6.60316 11.0417 6.85631 10.5175 7.09267 10.0815C7.34505 9.62124 7.65343 9.19396 8.01077 8.80942C8.18514 8.61929 8.36688 8.43546 8.55176 8.25479C8.71943 8.07404 8.9053 7.91105 9.1064 7.76842C9.3249 7.62766 9.57491 7.56988 9.81862 7.48794C10.0623 7.40601 10.2903 7.29361 10.5329 7.21272C11.0918 7.02764 11.6909 7.00074 12.2641 7.13499C12.4616 7.18016 12.5456 6.87658 12.3481 6.83036C12.1485 6.78466 11.9454 6.7555 11.741 6.74317C12.021 6.52923 12.3547 6.3969 12.7053 6.3608C12.907 6.3419 13.0677 6.31563 13.2231 6.17697C13.3786 6.03831 13.4994 5.9112 13.6517 5.79355C14.2666 5.31627 15.0103 5.03423 15.7871 4.98386C16.5638 4.93349 17.3377 5.1171 18.009 5.51098C18.7507 5.94062 19.2969 6.63812 19.8715 7.26L20.4167 7.8493C20.5761 8.01066 20.7235 8.18339 20.8579 8.36613C20.9859 8.5448 21.0639 8.75441 21.0837 8.9733C21.0906 9.15008 21.1134 9.32588 21.152 9.49853C21.1325 9.51855 21.1186 9.54339 21.1118 9.57051C21.105 9.59763 21.1055 9.62607 21.1132 9.65295C21.1976 9.69212 21.2701 9.75302 21.3233 9.82942C21.3881 9.93108 21.4582 10.0293 21.5333 10.1236C21.7088 10.196 21.839 10.32 21.8254 10.4639C22.0743 10.7297 22.3506 10.9765 22.608 11.2339C22.9326 11.5553 23.2267 11.9072 23.5177 12.2591C24.0586 12.9136 24.6889 13.7035 24.6259 14.5996C24.676 14.6433 24.7143 14.6989 24.7372 14.7613C24.9662 15.421 25.0986 16.1007 25.2551 16.7782C25.2982 16.9641 25.3423 17.1637 25.3927 17.3633C26.0377 17.9883 26.4894 18.7804 27.1249 19.3918C27.4968 19.5472 27.8624 19.7195 28.1428 20.0084Z" fill="#FF5500"/>
<g opacity="0.91">
<mask id="mask0_963_2221" style="mask-type:luminance" maskUnits="userSpaceOnUse" x="0" y="0" width="29" height="28">
<path d="M28.4087 20.1912C28.5064 19.1102 28.5914 18.0146 28.3856 16.941C28.2805 16.3822 28.0946 15.8423 28.0316 15.275C27.9782 14.7392 27.9694 14.1998 28.0053 13.6625C28.0652 12.5585 28.2248 11.4566 28.146 10.3462C28.1072 9.79476 28.0105 9.24747 27.9948 8.69493C27.9769 8.11717 28.0904 7.55833 28.1891 6.99213C28.3774 5.94621 28.3906 4.87627 28.228 3.82604C28.1476 3.3059 28.0207 2.79403 27.8488 2.29657C27.7122 1.90475 27.5452 1.47197 27.2059 1.20935C27.0632 1.09174 26.8809 1.03311 26.6964 1.04548C26.6654 1.04753 26.6358 1.05888 26.6113 1.07804C25.7402 1.04932 24.8681 1.06685 23.9988 1.13057C23.5352 1.16418 23.073 1.2118 22.6122 1.27343C22.1826 1.33015 21.7403 1.39528 21.3181 1.26187C20.9378 1.14107 20.6006 0.927825 20.1972 0.884756C19.7571 0.837485 19.2949 0.93938 18.8579 0.989802C17.9251 1.1043 16.9912 1.21986 16.0542 1.29549C15.1273 1.37689 14.1961 1.39899 13.2663 1.36166C12.3324 1.31649 11.407 1.17153 10.4721 1.15157C9.53716 1.13161 8.60645 1.15157 7.67469 1.16838L4.8479 1.20305C3.92139 1.2146 2.99489 1.2146 2.06944 1.23771C1.48223 1.25242 0.724846 1.28813 0.265795 1.70622C0.171103 1.79505 0.0990637 1.90527 0.0557034 2.02766C0.0552204 2.035 0.0552204 2.04237 0.0557034 2.04972C0.0374377 2.06349 0.0234207 2.08212 0.0152469 2.10348C0.00707312 2.12484 0.00507877 2.14807 0.00948937 2.17052C0.255297 4.30085 0.430374 6.43678 0.534719 8.57832C0.585842 9.64979 0.620857 10.7216 0.639765 11.7938C0.647118 12.319 0.656573 12.8516 0.639765 13.381C0.61934 13.918 0.559292 14.4527 0.460128 14.9809C0.368738 15.4788 0.271048 15.983 0.279452 16.4925C0.305305 16.9821 0.375625 17.4684 0.489544 17.9453C0.599139 18.4494 0.651991 18.9641 0.647113 19.48C0.635558 19.9937 0.586191 20.5084 0.638714 21.021C0.691237 21.5336 0.891879 21.9906 0.971714 22.4917C1.0484 22.9644 0.90658 23.4213 0.795231 23.8762C0.683882 24.331 0.616658 24.7733 0.747966 25.2229C0.879273 25.6725 1.13453 26.0779 1.12192 26.5622C1.10741 26.8328 1.06981 27.1016 1.00953 27.3658H1.32467L1.33096 27.3322C2.77324 26.912 4.24809 26.6074 5.70087 26.226C7.17152 25.8395 8.58859 25.3027 10.0078 24.7554C10.7746 24.4581 11.554 24.1755 12.2726 23.7711C12.3086 23.7499 12.3348 23.7153 12.3454 23.6748C12.3559 23.6343 12.3499 23.5913 12.3288 23.5553C12.3076 23.5192 12.2729 23.493 12.2325 23.4824C12.192 23.4719 12.149 23.4779 12.1129 23.4991C11.887 23.6262 11.6538 23.7407 11.4185 23.8478C11.4301 23.435 11.2851 23.0505 11.1097 22.6786C12.1864 22.519 13.219 22.124 14.0688 21.4275C14.2254 21.2994 14.0016 21.0777 13.8461 21.2048C13.053 21.8551 12.0698 22.2206 11.0635 22.3709C10.5494 22.444 10.0293 22.4658 9.51089 22.436C9.01928 22.4108 8.48774 22.3677 8.04025 22.145C7.54233 21.8971 7.30494 21.417 7.07699 20.9338C6.82434 20.3895 6.61089 19.8278 6.4383 19.2531C6.26392 18.6722 6.11056 18.0797 5.98345 17.4873C5.91334 17.1876 5.876 16.8811 5.8721 16.5734C5.87659 16.2858 5.9118 15.9995 5.97714 15.7194C6.04647 15.4042 6.13262 15.0891 6.19249 14.7645C6.24991 14.446 6.27699 14.1227 6.27338 13.7991C6.26303 13.4657 6.29838 13.1324 6.37843 12.8085C6.47494 12.4796 6.59321 12.1575 6.73243 11.8442C6.74113 11.8165 6.74126 11.7869 6.73283 11.7592C6.72439 11.7314 6.70778 11.7069 6.68515 11.6887C6.70063 11.6704 6.71172 11.6487 6.71754 11.6254C6.72337 11.6021 6.72379 11.5778 6.71878 11.5543C6.61373 11.0438 6.86689 10.5196 7.10325 10.0836C7.35563 9.62335 7.66401 9.19607 8.02135 8.81153C8.19572 8.62139 8.37744 8.43756 8.56232 8.25688C8.73 8.07613 8.91587 7.91315 9.11697 7.77052C9.33547 7.62976 9.58548 7.57198 9.82919 7.49005C10.0729 7.40811 10.3008 7.29571 10.5435 7.21483C11.1023 7.02974 11.7015 7.00284 12.2747 7.13709C12.4721 7.18226 12.5562 6.87868 12.3587 6.83246C12.159 6.78676 11.956 6.75759 11.7515 6.74527C12.0316 6.53133 12.3653 6.399 12.7158 6.36291C12.9175 6.344 13.0783 6.31774 13.2337 6.17908C13.3892 6.04042 13.51 5.91331 13.6623 5.79566C14.2771 5.31837 15.0209 5.03634 15.7976 4.98597C16.5743 4.9356 17.3483 5.1192 18.0196 5.51308C18.7612 5.94272 19.3075 6.64023 19.8821 7.2621L20.4273 7.85141C20.5867 8.01276 20.7341 8.18549 20.8685 8.36823C20.9965 8.5469 21.0744 8.75651 21.0943 8.9754C21.1011 9.15218 21.124 9.32798 21.1626 9.50063C21.1195 9.5458 21.295 9.55105 21.3296 9.62248C21.8548 10.7066 22.8003 11.0595 23.3255 12.1436C23.8339 13.194 24.6228 13.9462 24.9012 15.0849C25.1796 16.2236 25.5115 16.7656 25.7415 17.9211C25.8581 18.5041 26.3718 18.7615 26.792 19.1817C27.1071 19.4968 26.9191 19.3918 27.4223 19.6018C28.1576 19.917 27.353 19.8119 28.2626 20.022C28.25 20.0157 28.3593 20.7405 28.4087 20.1912Z" fill="white"/>
</mask>
<g mask="url(#mask0_963_2221)">
<path d="M-1.82466 7.74952C-1.52097 7.70479 -1.22609 7.613 -0.950672 7.47745C-0.731126 7.34929 -0.621878 7.20433 -0.621878 7.04466C-0.621878 6.7873 -0.857178 6.55304 -1.32778 6.33875C-2.32642 5.91856 -2.84221 5.10341 -2.87512 3.89328C-2.85937 3.71155 -2.84255 3.57814 -2.82679 3.50041C-2.82785 3.40632 -2.82258 3.31227 -2.81103 3.21889C-2.73243 2.66795 -2.47954 2.15663 -2.08937 1.7598C-1.71088 1.37538 -1.25005 1.08193 -0.741632 0.901571C-0.262312 0.720772 0.245114 0.625826 0.757376 0.621094C1.65027 0.621094 2.40415 0.786721 3.01902 1.11797C3.59608 1.42791 4.02809 1.95236 4.22179 2.5781H4.25331C4.39827 1.27343 5.22954 0.621094 6.7471 0.621094C7.11172 0.626383 7.47271 0.694252 7.81436 0.821735C8.1525 0.939883 8.45383 1.1445 8.68835 1.41524C8.91843 1.67891 9.04137 2.01922 9.0329 2.36906C9.01169 2.70693 8.96071 3.04228 8.88058 3.3712C8.85327 3.49515 8.806 3.76722 8.73667 4.18951C8.75202 4.30325 8.78425 4.41406 8.83226 4.5183C8.91735 4.63596 9.16421 4.71894 9.56758 4.76726C9.72704 4.74459 9.88768 4.73126 10.0487 4.72734V5.02357C8.64317 5.02357 7.92431 5.16364 7.89209 5.44376C7.89209 5.5292 8.27167 5.75364 9.0308 6.1171C9.68839 6.42664 10.0172 6.93996 10.0172 7.65708C10.0089 7.89559 9.97365 8.13239 9.91214 8.36298C9.77208 8.92883 9.4832 9.54896 9.04551 10.2234C8.63361 10.8589 8.10286 11.4089 7.48242 11.8432C6.90411 12.2637 6.20893 12.4932 5.4939 12.4997C5.01686 12.4837 4.54788 12.3723 4.11464 12.172C3.99699 12.7108 3.87514 12.7728 3.49173 13.3001C2.91502 14.0932 3.03687 13.7781 2.8709 14.2004H2.54211C2.08306 13.1583 1.72169 13.4094 1.46013 10.9282C0.549729 10.5227 -0.0756429 10.3196 -0.415992 10.3189C-0.945424 10.3189 -1.27422 10.653 -1.40238 11.3211H-1.59566C-1.55706 10.5272 -1.31389 9.75682 -0.88975 9.08465C-0.493377 8.45858 0.145653 8.14554 1.02734 8.14554C1.1555 8.14554 1.29941 8.15395 1.46013 8.1697V4.5162C1.47619 3.73652 1.34283 2.96098 1.06726 2.23145C0.804642 1.56196 0.320736 1.22756 -0.384473 1.22826C-0.676413 1.22797 -0.963568 1.30247 -1.21854 1.44466C-1.46995 1.57421 -1.59566 1.73738 -1.59566 1.93417V1.96673C-1.59116 2.10739 -1.54018 2.2426 -1.45069 2.3512C-1.2206 2.60793 -0.968586 2.84412 -0.697508 3.05711C-0.216397 3.47729 0.0749246 3.73921 0.176469 3.84286C0.377201 4.03473 0.535291 4.2667 0.640444 4.5237C0.745596 4.7807 0.795463 5.05696 0.786792 5.33451C0.787392 5.71663 0.696629 6.09336 0.522074 6.43329C0.303954 6.8209 -0.000932508 7.15275 -0.368713 7.40286C-0.807301 7.70973 -1.30373 7.92417 -1.8278 8.03314L-1.82466 7.74952ZM8.06228 4.99101C7.29194 4.89507 6.77615 4.66011 6.51494 4.28615C6.23002 3.87024 6.07635 3.37846 6.07375 2.87433V2.07283C6.07375 1.52729 5.93754 1.24717 5.66512 1.23246C5.60429 1.22026 5.54226 1.21498 5.48024 1.21671C5.04185 1.21671 4.75858 1.48142 4.63042 2.01086C4.45964 2.75811 4.37087 3.52175 4.3657 4.28825C4.3924 4.32808 4.40396 4.37615 4.39827 4.42376V9.13087L6.41831 10.4145C7.01147 10.7647 7.46071 10.9569 7.76604 10.9912C7.89245 10.9801 8.01506 10.9422 8.12571 10.8801C8.23637 10.818 8.33255 10.7331 8.40787 10.6309C8.55761 10.4319 8.63905 10.1898 8.64003 9.94078C8.64003 9.49748 8.27657 9.11791 7.54965 8.80208C6.35913 8.22012 5.74705 7.56008 5.71344 6.82196C5.82549 5.75259 6.60844 5.15383 8.06228 5.02567V4.99101Z" fill="black"/>
<path d="M20.2633 6.4069L20.0638 6.51194C19.6436 5.48039 19.1817 4.96462 18.6782 4.96462C18.3883 4.96462 18.2213 5.1572 18.1771 5.54237C18.202 5.89783 18.2843 6.2469 18.4208 6.57602C18.5609 6.90796 18.7475 7.28508 18.9807 7.70737C19.1848 8.10319 19.3668 8.50999 19.5259 8.9259C19.6447 9.29086 19.7046 9.6724 19.7035 10.0562C19.7187 10.6374 19.5278 11.2052 19.1646 11.6592C18.804 12.0988 18.3408 12.443 17.8158 12.6613C17.2868 12.8915 16.719 13.0194 16.1424 13.0384H16.0027C15.1231 13.0384 14.3689 12.835 13.74 12.4281C13.0761 12.0079 12.6584 11.3665 12.4868 10.5037C12.3194 9.52326 12.0344 9.03305 11.6317 9.03305C11.4647 9.03305 11.3166 9.1528 11.1895 9.39335C11.0564 9.69442 10.985 10.0191 10.9794 10.3482C11.0129 10.6741 11.0648 10.9978 11.1349 11.3178L10.8617 11.3819C10.8176 11.1529 10.7735 10.8073 10.7294 10.3482C10.7441 9.62621 10.9405 9.05125 11.3187 8.62336C11.4781 8.42917 11.6753 8.26936 11.8983 8.15362C12.1213 8.03788 12.3654 7.96861 12.616 7.95002H12.7042C13.1682 7.93272 13.6231 8.08174 13.9868 8.37021C14.3699 8.67484 14.6476 9.13004 14.8199 9.7358C14.9186 10.0404 15.0538 10.4627 15.2253 11.0027C15.3173 11.3287 15.4331 11.6475 15.572 11.9565C15.6703 12.1572 15.8082 12.3358 15.9775 12.4817C16.049 12.5528 16.1342 12.6086 16.2279 12.6457C16.3216 12.6829 16.4219 12.7008 16.5227 12.6981C16.8139 12.7112 17.0998 12.617 17.3263 12.4334C17.528 12.2464 17.6288 11.9792 17.6288 11.6319C17.6246 11.2949 17.5621 10.9611 17.4439 10.6455C17.3466 10.3892 17.155 9.9669 16.8693 9.37864C16.6088 8.84431 16.4687 8.56104 16.4491 8.52883C16.2504 8.05684 16.1284 7.5561 16.0878 7.04558C16.1025 6.32426 16.3189 5.729 16.737 5.2598C17.155 4.79059 17.6453 4.55564 18.2076 4.55493C19.1313 4.55213 19.8165 5.16945 20.2633 6.4069ZM14.6612 4.69885L14.7495 4.96357C14.2844 5.22592 13.7648 5.37694 13.2316 5.40476C12.7052 5.40892 12.1986 5.20417 11.8229 4.83541C11.6446 4.66691 11.5038 4.46267 11.4099 4.23603C11.3159 4.0094 11.2709 3.76548 11.2777 3.52023C11.3219 2.95385 11.5021 2.40648 11.8029 1.92459C12.0856 1.46371 12.484 1.08488 12.9585 0.825803C13.3979 0.573995 13.8964 0.443827 14.4028 0.448692H14.469C14.9251 0.448811 15.3747 0.556796 15.781 0.76383L16.4491 1.09262L17.3073 1.5128C17.8781 1.80063 18.3645 1.9757 18.7664 2.03803C19.1201 2.00652 19.3463 1.91303 19.445 1.75756C19.4529 1.74808 19.4593 1.73746 19.4639 1.72605C19.4682 1.71432 19.4742 1.70333 19.4818 1.69348V1.621C19.4818 1.30586 19.2336 0.985126 18.737 0.658784L18.8263 0.442383C19.5532 0.792536 19.9167 1.36714 19.9167 2.16619C19.9236 2.42497 19.8745 2.68218 19.7728 2.92023C19.6711 3.15828 19.5192 3.37155 19.3274 3.54544C18.9471 3.90355 18.4609 4.12874 17.9418 4.18727C17.8761 4.20013 17.8092 4.20542 17.7422 4.20303C17.2303 4.20303 16.5104 3.89595 15.5825 3.28178C14.5748 2.67181 13.7197 2.36683 13.0173 2.36683C12.6529 2.35635 12.2961 2.47254 12.0078 2.69562C11.8662 2.81035 11.7508 2.9541 11.6694 3.11719C11.5881 3.28027 11.5426 3.4589 11.5361 3.64103C11.595 4.58225 12.1699 5.07666 13.261 5.12428C13.7534 5.08426 14.2312 4.93766 14.6612 4.69465V4.69885Z" fill="black"/>
<path d="M21.2088 7.99826C21.5476 8.00088 21.8827 7.92691 22.1889 7.78187C22.483 7.6327 22.643 7.44292 22.6689 7.21252C22.6689 7.08996 22.4869 6.89738 22.1227 6.63476C21.7783 6.41669 21.461 6.15857 21.1773 5.86583C20.9172 5.57036 20.7705 5.19212 20.7634 4.79856C20.755 4.70297 20.7508 4.56326 20.7508 4.37838C20.7355 3.71954 20.8653 3.06541 21.1311 2.46234C21.371 1.88602 21.7853 1.39929 22.316 1.07048C22.7635 0.781869 23.2836 0.625978 23.816 0.620881C24.4006 0.612996 24.9749 0.774629 25.4695 1.08623C25.9597 1.39577 26.2864 1.86603 26.4495 2.49701C26.6316 1.24696 27.2472 0.621581 28.2963 0.620881C29.1177 0.620881 29.6664 0.858984 29.9423 1.33519C30.2273 1.82541 30.3828 2.46409 30.4087 3.25124C30.436 3.97815 30.4672 4.41129 30.5022 4.55065C30.5421 4.71558 30.7207 4.79856 31.0358 4.79856H31.2291V5.09584H30.9959C30.4938 5.09584 30.1437 5.19213 29.9455 5.38472C29.7186 5.62492 29.6055 6.12459 29.6062 6.88372C29.6062 7.40825 29.5971 7.90022 29.5789 8.35962C29.5789 9.88769 29.8212 10.6601 30.3058 10.6769C30.581 10.6286 30.872 10.4626 31.1787 10.179L31.2838 10.4122L28.7437 12.6329C28.2318 12.2274 27.8673 11.8587 27.6502 11.5268C27.4401 11.1948 27.3351 10.9227 27.3099 10.7084C27.2742 10.3828 27.2391 9.78159 27.2048 8.90481C27.2048 8.85649 27.2048 8.78506 27.1975 8.69472C27.1901 8.60438 27.1912 8.53295 27.1912 8.49093C27.1818 8.01606 27.2312 7.54186 27.3382 7.07911C27.444 6.62531 27.6128 6.29126 27.8446 6.07697C28.0503 5.87873 28.2897 5.71867 28.5515 5.60426C28.5914 5.58745 28.7665 5.52303 29.0767 5.41098C29.3919 5.29963 29.6776 5.19459 29.9402 5.09584V5.05592C29.5154 5.04355 29.1015 4.91886 28.7406 4.69457C28.4318 4.51665 28.1992 4.23137 28.0872 3.89307C27.9912 3.51767 27.9352 3.13316 27.9202 2.74597C27.9211 2.40391 27.8859 2.06272 27.8151 1.72807C27.7661 1.55159 27.6282 1.46335 27.4013 1.46335H27.3582C26.8876 1.49487 26.6519 1.92765 26.6512 2.76172C26.6512 2.78903 26.6512 2.8342 26.6586 2.89828C26.6659 2.96235 26.6649 3.01068 26.6649 3.04324C26.6649 3.05375 26.6712 3.184 26.6848 3.43611C26.6985 3.68822 26.7143 3.92248 26.7321 4.14097C26.7587 4.68651 26.772 5.21594 26.772 5.72927C26.7814 6.34127 26.7368 6.95291 26.6386 7.55707C26.5756 7.96885 26.3466 8.46607 25.9516 9.04872C25.5833 9.57815 25.0479 10.2571 24.3455 11.0856C23.6248 11.935 23.1826 12.4722 23.0187 12.697L21.3779 10.7893L20.5848 11.7589L20.4514 11.5268L22.7183 8.73568L24.399 10.5803V9.12855C24.399 6.7286 24.294 4.85773 24.0839 3.51595C23.8885 2.33453 23.4064 1.70425 22.6374 1.62512H22.5502C21.9466 1.62512 21.5845 1.94341 21.4641 2.57999C21.4719 2.70624 21.5076 2.82918 21.5686 2.93998C21.6297 3.05077 21.7145 3.14667 21.817 3.22077C22.0523 3.40915 22.3391 3.61924 22.6773 3.85104C23.0156 4.08285 23.2421 4.31815 23.357 4.55696C23.5422 4.92146 23.6318 5.32698 23.6175 5.73557C23.6321 6.39288 23.415 7.03438 23.004 7.54761C22.5839 8.04973 22.0015 8.3008 21.2571 8.3008H21.2035L21.2088 7.99826Z" fill="black"/>
<path d="M4.16929 16.8067H4.23442C4.4277 14.7716 5.14026 13.7365 6.3721 13.7015H6.51077C7.15995 13.6826 7.65646 13.8675 8.00031 14.2562C8.33255 14.6125 8.51984 15.08 8.52554 15.5671C8.54471 15.9766 8.41358 16.3789 8.15683 16.6985C8.03126 16.8537 7.8762 16.9825 7.7006 17.0776C7.525 17.1726 7.33232 17.2319 7.13368 17.2521C6.76189 17.2663 6.39854 17.139 6.11684 16.896C5.97045 16.784 5.85037 16.6414 5.76507 16.478C5.67977 16.3147 5.63131 16.1346 5.62312 15.9505C5.65147 15.6118 5.75098 15.2828 5.91515 14.9852C5.96715 14.9011 6.0277 14.8226 6.09583 14.7509C6.14781 14.6958 6.19557 14.6368 6.23869 14.5744C6.2699 14.5182 6.29022 14.4565 6.29857 14.3927C6.29857 14.2572 6.20298 14.191 6.02335 14.1963C5.91 14.202 5.79779 14.2218 5.6893 14.2551C5.63148 14.2578 5.57552 14.2763 5.52754 14.3087H5.54328C4.77295 14.7015 4.4249 16.1722 4.49913 18.7206L4.51174 19.1408L6.06537 19.0967C6.52337 19.0827 6.83851 18.9836 7.01079 18.7994C7.18291 18.5749 7.30147 18.3141 7.35743 18.0368L7.53707 18.0315C7.55948 18.7836 7.43237 19.3901 7.15575 19.8509C6.86372 20.3285 6.50236 20.5736 6.07167 20.5862L4.55061 20.6303C4.57722 21.5407 4.74249 22.2561 5.04642 22.7764C5.35105 23.3136 5.801 23.5982 6.39626 23.6305H6.46139C6.9586 23.6158 7.6456 23.2169 8.52239 22.434L8.5329 22.7848L4.83633 26.0097C4.1218 25.6782 3.44582 25.2692 2.8205 24.7902C2.30555 24.3815 1.96713 23.7908 1.87509 23.1399H1.84252C1.75638 24.1462 1.46961 24.8991 0.982197 25.3984C0.764683 25.6308 0.502967 25.8176 0.212381 25.9476C-0.0782047 26.0777 -0.391816 26.1484 -0.710092 26.1558C-0.967112 26.1673 -1.22386 26.1275 -1.46535 26.0388C-1.70685 25.9501 -1.92825 25.8141 -2.11666 25.6389C-2.30814 25.4654 -2.4609 25.2534 -2.56498 25.0168C-2.66905 24.7803 -2.7221 24.5244 -2.72067 24.266C-2.73697 23.8369 -2.60777 23.4149 -2.35406 23.0685C-2.09145 22.7232 -1.78542 22.5453 -1.43596 22.5348C-0.945749 22.5201 -0.560581 22.6602 -0.280458 22.955C-0.00485676 23.246 0.149528 23.631 0.15128 24.0317C0.167387 24.5598 -0.029399 24.9229 -0.439078 25.1211C-0.709397 25.238 -0.865912 25.3924 -0.908631 25.5843C-0.908631 25.7093 -0.763667 25.785 -0.488447 25.8091C0.429655 25.6522 1.01826 25.1498 1.27737 24.3017C1.53158 23.4655 1.64118 22.434 1.60616 21.207L1.59146 20.6997L0.184889 20.7406C-0.256304 20.7532 -0.559528 20.8299 -0.7248 20.9707C-0.873966 21.1108 -1.00843 21.3765 -1.12819 21.768L-1.35613 21.7753C-1.28532 21.2712 -1.18784 20.7712 -1.0641 20.2774C-0.986377 19.9919 -0.825499 19.7359 -0.601905 19.5421C-0.378507 19.3551 -0.0406065 19.2553 0.411791 19.2427L1.5484 19.2101C1.52949 18.5504 1.41848 18.0052 1.2154 17.5746C1.04979 17.1811 0.772624 16.8448 0.4181 16.6071C0.0958627 16.404 -0.281461 16.306 -0.661775 16.3266C-1.01181 16.3374 -1.35425 16.4314 -1.66076 16.6008C-1.98784 16.7863 -2.27093 17.0404 -2.49063 17.3456L-2.63559 17.1355L0.41074 13.8643C1.4612 14.1073 2.29211 14.4463 2.90348 14.8812C3.52675 15.307 3.94869 15.9488 4.16929 16.8067Z" fill="black"/>
<path d="M20.153 18.758L19.924 18.882C19.3344 17.8973 18.737 17.4316 18.1319 17.4849C17.7842 17.5153 17.6015 17.7244 17.5815 18.1151C17.6446 18.4712 17.7739 18.8122 17.9628 19.1204C18.2005 19.4893 18.4568 19.8459 18.7307 20.1888C19.0078 20.5574 19.2611 20.9434 19.4891 21.3443C19.6632 21.6901 19.7701 22.0658 19.8043 22.4514C19.837 22.7481 19.8092 23.0484 19.7226 23.3341C19.6359 23.6197 19.4922 23.8848 19.3001 24.1133C18.8856 24.6054 18.3633 24.9953 17.7737 25.253C17.1507 25.54 16.4857 25.7255 15.8041 25.8024L15.636 25.8171C14.5856 25.9089 13.6654 25.7849 12.8754 25.4453C12.4815 25.2915 12.1272 25.0512 11.8387 24.7421C11.5501 24.433 11.3347 24.063 11.2084 23.6595C10.9233 22.6958 10.5382 22.2354 10.0529 22.2781C9.85221 22.296 9.68624 22.4304 9.55493 22.6836C9.42131 22.9896 9.36192 23.323 9.38161 23.6563C9.45051 23.977 9.54035 24.2928 9.65053 24.6017L9.33539 24.6942C9.23534 24.3596 9.15225 24.0202 9.08643 23.6773C9.04231 22.9567 9.22789 22.3639 9.64317 21.8989C10.026 21.4568 10.5573 21.1698 11.1369 21.0921L11.242 21.0827C11.8533 21.0302 12.3786 21.1268 12.8177 21.3726C13.303 21.6359 13.6745 22.0596 13.9322 22.6437C14.0765 22.9378 14.275 23.3447 14.5278 23.8643C14.6667 24.1827 14.833 24.4885 15.0247 24.7782C15.1648 24.9721 15.3437 25.1349 15.5499 25.2562C15.7479 25.3887 15.9865 25.4468 16.2233 25.42C16.565 25.4054 16.8935 25.2838 17.1624 25.0723C17.274 24.9676 17.3588 24.8375 17.4096 24.693C17.4605 24.5486 17.4758 24.3941 17.4544 24.2425C17.4196 23.9037 17.3151 23.5757 17.1477 23.2792C17.0076 23.0334 16.7418 22.6325 16.3504 22.0764C15.9918 21.5715 15.7996 21.304 15.7737 21.2739C15.4981 20.8332 15.3078 20.3447 15.2127 19.8337C15.183 19.4992 15.2228 19.1622 15.3296 18.8438C15.4365 18.5255 15.608 18.2327 15.8335 17.9838C16.2666 17.4852 16.8788 17.1776 17.5374 17.1277C18.639 17.0304 19.5108 17.5738 20.153 18.758ZM13.3019 17.6393L13.4301 17.8945C12.8826 18.2092 12.2781 18.412 11.6516 18.4912C10.9611 18.5353 10.383 18.3953 9.91734 18.071C9.69939 17.9378 9.51622 17.7547 9.3829 17.5368C9.24958 17.319 9.16993 17.0725 9.15051 16.8178C9.16055 16.234 9.33256 15.6645 9.64738 15.1728C9.96418 14.6659 10.4049 14.248 10.9279 13.9585C11.4468 13.6582 12.0266 13.4787 12.6244 13.4332L12.7032 13.4269C13.242 13.3786 13.7851 13.4379 14.3009 13.6013L15.1276 13.8597L16.1917 14.1938C16.7704 14.3957 17.3728 14.5218 17.9838 14.5688C18.404 14.5005 18.6677 14.3829 18.7717 14.219C18.7794 14.2083 18.7857 14.1966 18.7906 14.1843C18.7953 14.1723 18.8017 14.161 18.8095 14.1507V14.0793C18.7815 13.7648 18.4565 13.4711 17.8347 13.1979L17.9218 12.9731C18.8224 13.2435 19.3074 13.7781 19.3767 14.5772C19.4251 15.1304 19.2297 15.6087 18.7906 16.0121C18.3418 16.4207 17.7856 16.6926 17.1876 16.7958C17.1102 16.8158 17.031 16.8281 16.9512 16.8325C16.3399 16.8858 15.4519 16.6547 14.2872 16.1392C13.0267 15.6371 11.9762 15.4225 11.1359 15.4953C10.7083 15.519 10.2976 15.6696 9.9562 15.9281C9.80353 16.0439 9.68026 16.194 9.59631 16.3663C9.51237 16.5385 9.47013 16.7281 9.473 16.9197C9.62566 17.8511 10.3568 18.2839 11.6664 18.2181C12.2428 18.1285 12.7974 17.9322 13.3019 17.6393Z" fill="black"/>
<path d="M24.0597 18.2004C23.6723 18.369 23.2607 18.4754 22.8401 18.5155C22.5549 18.511 22.2737 18.4474 22.0143 18.3288C21.7549 18.2102 21.5228 18.0391 21.3327 17.8264C20.9457 17.3866 20.7396 16.8165 20.756 16.2308V16.1026C20.7608 15.5852 20.8898 15.0765 21.1321 14.6194C21.3855 14.1501 21.7387 13.7421 22.1668 13.424C22.8139 12.9968 23.6371 12.7828 24.6364 12.7821C25.5213 12.7713 26.395 12.9811 27.1785 13.3925C28.0163 13.8425 28.8178 14.357 29.5757 14.9314C30.3838 15.5519 30.9213 15.8701 31.1881 15.8862C31.5243 15.8054 31.6934 15.6131 31.6934 15.3085C31.6934 15.0039 31.5411 14.6992 31.2365 14.3946C30.915 14.0731 30.4497 13.8431 29.8404 13.7044L29.873 13.424C31.2631 13.7979 31.9581 14.4821 31.9581 15.4766C31.9616 15.7648 31.9 16.05 31.7777 16.3111C31.6555 16.5721 31.4758 16.8021 31.2522 16.984C30.816 17.3639 30.255 17.5697 29.6765 17.5617H29.5799C28.9391 17.5302 27.8834 17.1188 26.4128 16.3274C26.2963 16.403 26.2133 16.5203 26.1806 16.6552C26.1806 16.8212 26.4586 17.0806 27.0147 17.4336C27.6078 17.8075 28.0406 18.1388 28.313 18.4273C28.4329 18.5483 28.5267 18.6926 28.5889 18.8512C28.651 19.0098 28.6801 19.1794 28.6744 19.3496C28.6702 19.4552 28.6593 19.5605 28.6418 19.6648C28.6022 19.9859 28.4718 20.2892 28.2658 20.5387C28.071 20.7692 27.8504 20.9764 27.6082 21.1564C27.3351 21.3763 27.0945 21.5633 26.8865 21.7173C26.9664 21.7608 27.1159 21.8452 27.3351 21.9705C27.5543 22.0959 27.7118 22.188 27.8078 22.2468C28.2204 22.4867 28.6493 22.6973 29.0914 22.8771C29.4881 23.0603 29.9157 23.1672 30.352 23.1922C30.5367 23.191 30.7187 23.1478 30.8842 23.0657C31.0496 22.9836 31.1942 22.8648 31.3068 22.7184C31.5621 22.4071 31.7306 22.0338 31.7953 21.6365L32.0768 21.6848C31.8142 22.7598 31.2956 23.5802 30.5211 24.146C29.7928 24.6965 29.0309 24.9717 28.2353 24.9717H28.1387C26.9257 24.9717 25.6 24.5228 24.1616 23.625C23.0866 22.9569 22.4025 22.6228 22.109 22.6228H22.0765C21.8664 22.639 21.6689 22.779 21.484 23.043C21.3146 23.2594 21.2163 23.5228 21.2025 23.7973V24.062H20.9304V23.8298C20.9253 23.4296 20.9991 23.0323 21.1477 22.6607C21.2962 22.289 21.5165 21.9503 21.796 21.6638C22.3843 21.0601 23.074 20.7583 23.8654 20.7583C24.3384 20.763 24.8082 20.8358 25.2604 20.9747C25.6933 21.0799 26.1052 21.2575 26.4789 21.4999C26.5101 21.502 26.5392 21.5164 26.5598 21.5398C26.8007 21.5398 26.9208 21.4411 26.9201 21.2436V21.1385C26.9128 21.1288 26.9074 21.1178 26.9044 21.106C26.9014 21.0945 26.896 21.0838 26.8886 21.0745C26.7969 20.9239 26.5241 20.7047 26.0703 20.4169C25.7149 20.2174 25.3747 19.992 25.0524 19.7425C24.8109 19.5399 24.642 19.264 24.5713 18.9567C24.571 18.8388 24.549 18.722 24.5062 18.6122C24.5042 18.1465 24.6826 17.6981 25.0041 17.3611C25.3768 16.9528 25.7815 16.5749 26.2142 16.2308C25.7489 15.9159 25.2414 15.6683 24.7068 15.4955C24.1434 15.2931 23.5501 15.1866 22.9515 15.1803C21.8065 15.1803 21.2021 15.6401 21.1384 16.5596C21.1384 16.5806 21.1552 16.6237 21.171 16.6877C21.1867 16.7518 21.1972 16.8033 21.2025 16.8401C21.2077 16.8768 21.2151 16.9041 21.2235 16.9682C21.2278 17.014 21.2345 17.0596 21.2434 17.1048C21.3135 17.3562 21.4924 17.5967 21.7802 17.8264C22.0963 18.0672 22.4817 18.1995 22.879 18.2036C23.2566 18.1663 23.6252 18.0658 23.9694 17.9063L24.0597 18.2004Z" fill="black"/>
</g>
</g>
<path d="M1.67441 37.4688L12.0593 37.4499C12.9269 37.4499 13.7946 37.4384 14.6623 37.4636C15.488 37.4877 16.3052 37.577 17.1277 37.6484C17.9435 37.7194 18.7641 37.7172 19.5795 37.6421C20.3968 37.5665 21.213 37.5192 22.0344 37.5056C23.8612 37.4762 25.6953 37.556 27.5157 37.3669C27.7153 37.347 27.7174 37.0308 27.5157 37.0518C25.8938 37.2199 24.2593 37.1736 22.6321 37.1841C21.8107 37.1841 20.9882 37.2073 20.1688 37.2734C19.3495 37.3396 18.548 37.4215 17.7265 37.3785C16.905 37.3354 16.0626 37.2167 15.2275 37.1684C14.3923 37.1201 13.5341 37.1295 12.6885 37.1306L7.49607 37.14L1.67441 37.1505C1.63262 37.1505 1.59255 37.1671 1.563 37.1967C1.53345 37.2262 1.51685 37.2663 1.51685 37.3081C1.51685 37.3499 1.53345 37.39 1.563 37.4195C1.59255 37.4491 1.63262 37.4657 1.67441 37.4657V37.4688Z" fill="white"/>
<path d="M0 2.15243C0.242306 4.64132 0.417383 7.13477 0.52523 9.63276C0.577753 10.8877 0.612768 12.1441 0.630276 13.4018C0.647083 14.6445 0.668089 15.8872 0.482158 17.1194C0.392868 17.7097 0.285722 18.3001 0.272066 18.8978C0.276363 19.4877 0.337216 20.0759 0.453793 20.6542C0.567459 21.2401 0.630024 21.8348 0.640778 22.4316C0.640778 23.0408 0.584055 23.649 0.616619 24.2573C0.647083 24.8445 0.816207 25.3918 0.931757 25.9643C1.04626 26.5557 0.948565 27.1103 0.826711 27.6902C0.714312 28.2154 0.616619 28.7406 0.721665 29.2774C0.826711 29.8373 1.12084 30.3447 1.12609 30.9245C1.13239 31.5327 0.952761 32.1326 0.899187 32.7366C0.851044 33.3444 0.847536 33.955 0.888685 34.5633C0.9223 35.1253 0.956957 35.6957 1.03784 36.2525C1.09142 36.6222 1.19437 37.0634 1.4822 37.326C1.54226 37.3819 1.61285 37.4253 1.68987 37.4536C1.76688 37.4819 1.84876 37.4946 1.93073 37.4909C2.13347 37.4825 2.13452 37.1674 1.93073 37.1758C1.55362 37.1926 1.42967 36.638 1.37295 36.3554C1.2679 35.8302 1.25004 35.2682 1.21433 34.7324C1.16969 34.1354 1.16442 33.536 1.19857 32.9383C1.23743 32.351 1.38451 31.7828 1.43073 31.1934C1.47695 30.6041 1.29626 30.1209 1.12609 29.5799C0.949613 29.02 0.98323 28.4948 1.10193 27.9265C1.20698 27.4013 1.34774 26.876 1.31202 26.3361C1.26895 25.7689 1.06411 25.2321 0.987422 24.6711C0.907587 24.086 0.945407 23.4936 0.964315 22.9064C0.986956 22.3221 0.956367 21.7371 0.872926 21.1584C0.786788 20.5838 0.662829 20.0134 0.61871 19.4314C0.590624 18.8305 0.630088 18.2283 0.736361 17.6362C0.8267 17.049 0.913888 16.4628 0.946453 15.8693C0.979017 15.2758 0.975876 14.6666 0.970624 14.0646C0.960119 12.8426 0.933156 11.6213 0.889737 10.4006C0.802898 7.94957 0.648126 5.50095 0.425429 3.05478C0.398117 2.75365 0.369761 2.45286 0.340348 2.15243C0.320389 1.95285 0.00525127 1.95074 0.02521 2.15243H0Z" fill="white"/>
<path d="M0.361299 2.07396C0.450588 1.84076 0.728957 1.72941 0.949553 1.66323C1.26135 1.57778 1.58229 1.53016 1.90547 1.52142C2.78891 1.4794 3.6776 1.49516 4.56209 1.48465C6.413 1.46154 8.26496 1.40797 10.1159 1.42373C11.034 1.43108 11.9395 1.55188 12.8544 1.61911C13.7639 1.6798 14.6764 1.67769 15.5856 1.61281C16.4985 1.55293 17.4071 1.44894 18.3168 1.33969C18.7706 1.28402 19.2244 1.22099 19.6824 1.17477C19.8942 1.14442 20.1095 1.14832 20.32 1.18632C20.5044 1.23342 20.6838 1.29815 20.8558 1.37961C21.2269 1.55329 21.6345 1.6344 22.0438 1.61596C22.4924 1.59075 22.9388 1.51091 23.3853 1.46364C24.2889 1.37369 25.1969 1.33406 26.1049 1.34494C26.3297 1.34494 26.5545 1.35334 26.7793 1.36175C26.9831 1.37015 26.982 1.05501 26.7793 1.04661C25.854 1.01124 24.9275 1.02737 24.004 1.09493C23.5404 1.12995 23.0782 1.17792 22.6174 1.23884C22.1878 1.29452 21.7455 1.35965 21.3232 1.22624C20.943 1.10649 20.6058 0.893241 20.2024 0.850173C19.7622 0.802902 19.3 0.903746 18.863 0.955219C17.9302 1.06972 16.9964 1.18527 16.0594 1.26091C15.1324 1.34231 14.2012 1.36441 13.2715 1.32709C12.3376 1.28297 11.4121 1.13695 10.4772 1.11699C9.54232 1.09703 8.61161 1.12329 7.67986 1.13485L4.85307 1.16952C3.92656 1.18002 3.00006 1.18002 2.0746 1.20418C1.4874 1.21888 0.730011 1.25355 0.270961 1.67163C0.176487 1.76065 0.104484 1.87081 0.0608686 1.99307C-0.0116131 2.18321 0.293023 2.26515 0.365504 2.07712L0.361299 2.07396Z" fill="white"/>
<path d="M26.6963 1.32608C26.9464 1.30192 27.105 1.52672 27.2216 1.72C27.3644 1.98595 27.4748 2.2681 27.5504 2.56037C27.7364 3.19769 27.8685 3.84951 27.9453 4.50897C28.026 5.19422 28.0516 5.88483 28.022 6.57418C27.9926 7.27589 27.8792 7.96393 27.7815 8.65829C27.683 9.35631 27.6647 10.0633 27.7269 10.7655C27.7888 11.4756 27.8624 12.1794 27.8561 12.8927C27.8424 14.2961 27.646 15.6943 27.6775 17.0945C27.6976 17.7789 27.7824 18.4598 27.9306 19.1282C28.0849 19.8091 28.1745 20.503 28.1985 21.2008C28.2342 22.5853 28.0462 23.9614 27.9884 25.3427C27.9611 25.9657 27.9348 26.6096 28.0325 27.2283C28.1113 27.7273 28.2615 28.2242 28.272 28.7315C28.2794 29.0761 28.1975 29.4364 28.1586 29.782C28.1103 30.2085 28.0672 30.636 28.0031 31.0604C27.9296 31.5447 27.793 32.0163 27.729 32.5027C27.6567 33.0885 27.6216 33.6783 27.6239 34.2685C27.6239 34.7097 27.6439 35.1404 27.6785 35.5805C27.709 35.9755 27.7605 36.4125 27.6617 36.8022C27.6365 36.8999 27.5997 37.026 27.4916 37.0554C27.4524 37.0675 27.4195 37.0943 27.3998 37.1303C27.3802 37.1663 27.3753 37.2085 27.3862 37.248C27.3971 37.2874 27.423 37.3211 27.4584 37.3419C27.4937 37.3626 27.5358 37.3687 27.5756 37.359C27.9138 37.2665 27.9874 36.8726 28.0136 36.5722C28.0359 36.1399 28.0208 35.7066 27.9685 35.2769C27.8682 34.1471 27.9279 33.0087 28.146 31.8955C28.2321 31.4753 28.3172 31.0677 28.3697 30.6413C28.4244 30.199 28.4748 29.7557 28.5241 29.3135C28.5431 29.1559 28.5767 28.9983 28.583 28.8387C28.5839 28.5878 28.5589 28.3375 28.5084 28.0918C28.4149 27.5456 28.2983 27.0245 28.2857 26.4678C28.25 25.0244 28.4538 23.5895 28.5042 22.1483C28.5367 21.4469 28.5086 20.744 28.4202 20.0474C28.3214 19.3278 28.1124 18.6293 28.0388 17.9055C27.8928 16.4632 28.0861 15.0167 28.1439 13.5755C28.1779 12.8501 28.1614 12.1231 28.0945 11.4C28.0252 10.6594 27.9506 9.92304 28.0241 9.17932C28.0966 8.4524 28.2479 7.73493 28.3046 7.00486C28.3578 6.30542 28.3543 5.60282 28.2941 4.90394C28.2366 4.22154 28.1238 3.54493 27.9569 2.88076C27.8182 2.33242 27.6691 1.69059 27.2741 1.262C27.2037 1.17726 27.1146 1.11007 27.0138 1.06577C26.913 1.02146 26.8032 1.00125 26.6932 1.00674C26.4936 1.0267 26.4915 1.34184 26.6932 1.32188L26.6963 1.32608Z" fill="white"/>
<path d="M11.6454 6.77867C11.9431 6.52128 12.3128 6.36175 12.7042 6.32172C12.9059 6.30176 13.0667 6.27655 13.2221 6.13684C13.3776 5.99713 13.4984 5.87212 13.6507 5.75447C14.265 5.27622 15.0089 4.9935 15.7858 4.94293C16.5627 4.89236 17.3369 5.07628 18.008 5.47085C18.7496 5.90154 19.2959 6.59904 19.8705 7.22091L20.4157 7.81022C20.5753 7.97135 20.7228 8.1441 20.8569 8.32705C20.9847 8.50542 21.0626 8.71464 21.0827 8.93316C21.0848 9.16066 21.1253 9.38618 21.2025 9.60021C21.2823 9.78614 21.5533 9.62647 21.4745 9.44159C21.3957 9.25671 21.4115 9.0214 21.3863 8.82181C21.3589 8.6153 21.2873 8.41715 21.1762 8.24091C20.9483 7.87115 20.6153 7.56231 20.3222 7.24507C19.9913 6.88792 19.6625 6.52866 19.3305 6.17256C19.045 5.85389 18.7231 5.56974 18.3715 5.32589C17.6891 4.87862 16.8924 4.63722 16.0765 4.63051C15.2607 4.62381 14.4601 4.85208 13.7705 5.28807C13.5801 5.40963 13.3996 5.54591 13.2305 5.69564C13.1475 5.77023 13.0719 5.86057 12.9837 5.92885C12.8862 5.98646 12.7743 6.0149 12.6612 6.01078C12.2025 6.06238 11.7705 6.25256 11.4227 6.55597C11.2693 6.68833 11.4931 6.90998 11.6454 6.77867Z" fill="white"/>
<path d="M12.347 6.79127C11.7974 6.66182 11.2248 6.66543 10.6768 6.80177C10.4092 6.88069 10.1468 6.97611 9.89104 7.0875C9.63158 7.18729 9.35636 7.24507 9.1053 7.36692C8.87144 7.49177 8.65873 7.65271 8.47502 7.84383C8.26493 8.04447 8.0622 8.24826 7.86471 8.45835C7.47714 8.86277 7.14026 9.31287 6.86152 9.79873C6.55899 10.3397 6.27116 10.9658 6.39931 11.5992C6.43923 11.7978 6.74282 11.7137 6.7029 11.5152C6.59785 11.0047 6.85102 10.4805 7.08737 10.0445C7.33949 9.58409 7.64789 9.15678 8.00547 8.77244C8.17985 8.5823 8.36158 8.39847 8.54646 8.21674C8.71414 8.03599 8.89999 7.87301 9.10109 7.73038C9.31959 7.58962 9.5696 7.53289 9.81331 7.45096C10.057 7.36902 10.285 7.25557 10.5276 7.17469C11.0866 6.99014 11.6856 6.96325 12.2588 7.09695C12.4563 7.14317 12.5403 6.83959 12.3428 6.79337L12.347 6.79127Z" fill="white"/>
<path d="M6.41622 11.7224C6.17566 12.2991 5.95822 12.8779 5.94456 13.5082C5.95246 13.8326 5.93877 14.1572 5.90359 14.4798C5.85737 14.7782 5.78173 15.0712 5.7124 15.3654C5.63961 15.6559 5.58663 15.9511 5.55379 16.2488C5.52924 16.5557 5.54265 16.8644 5.59371 17.168C5.70666 17.8067 5.85784 18.4381 6.04645 19.0588C6.21767 19.664 6.43108 20.2565 6.68513 20.832C6.91203 21.3446 7.15153 21.895 7.61899 22.2333C8.04968 22.5484 8.59802 22.6377 9.11484 22.6881C9.6521 22.7407 10.1932 22.7407 10.7304 22.6881C11.9364 22.5684 13.1087 22.1629 14.0531 21.3919C14.2096 21.2627 13.9858 21.041 13.8304 21.1692C13.0373 21.8183 12.054 22.185 11.0477 22.3341C10.5337 22.4081 10.0135 22.4303 9.49511 22.4003C9.00349 22.374 8.47196 22.331 8.02446 22.1083C7.52655 21.8604 7.28915 21.3814 7.0612 20.8981C6.80859 20.3538 6.59515 19.7921 6.42251 19.2174C6.24814 18.6376 6.09477 18.0451 5.96767 17.4516C5.89761 17.1522 5.86028 16.8462 5.85633 16.5387C5.86081 16.2508 5.89603 15.9641 5.96137 15.6837C6.0307 15.3685 6.11683 15.0534 6.17671 14.7298C6.23403 14.4113 6.26112 14.0881 6.2576 13.7645C6.24724 13.4307 6.28259 13.097 6.36264 12.7728C6.45916 12.4439 6.57742 12.1218 6.71665 11.8085C6.72752 11.769 6.72267 11.7267 6.70308 11.6907C6.68349 11.6547 6.6507 11.6276 6.6116 11.6152C6.57124 11.6051 6.52853 11.6109 6.49233 11.6314C6.45614 11.652 6.42925 11.6857 6.41727 11.7255L6.41622 11.7224Z" fill="white"/>
<path d="M10.722 22.5906C10.9226 22.996 11.1516 23.4488 11.0823 23.9152C11.0724 23.9548 11.0777 23.9968 11.0971 24.0327C11.1166 24.0687 11.1487 24.0961 11.1873 24.1095C11.227 24.1204 11.2694 24.1156 11.3056 24.096C11.3418 24.0765 11.3691 24.0437 11.3817 24.0045C11.4657 23.4404 11.2336 22.9309 10.9898 22.4372C10.9799 22.4185 10.9662 22.4021 10.9497 22.3888C10.9332 22.3755 10.9142 22.3657 10.8938 22.3599C10.8735 22.3542 10.8521 22.3526 10.8311 22.3553C10.8101 22.3579 10.7899 22.3648 10.7716 22.3754C10.7533 22.3861 10.7373 22.4004 10.7247 22.4173C10.712 22.4343 10.7029 22.4536 10.6979 22.4742C10.6928 22.4948 10.692 22.5161 10.6954 22.537C10.6989 22.5579 10.7064 22.5779 10.7178 22.5958L10.722 22.5906Z" fill="white"/>
<path d="M9.46676 14.9736C9.6212 14.8543 9.80415 14.7775 9.99745 14.7508C10.1908 14.724 10.3877 14.7484 10.5687 14.8213C10.9592 14.9525 11.3136 15.1734 11.6034 15.4663C11.7084 15.5787 11.8734 15.4116 11.7704 15.2992C11.4334 14.9555 11.015 14.7026 10.554 14.5639C10.3414 14.4967 10.1154 14.4835 9.89642 14.5255C9.67744 14.5675 9.47237 14.6634 9.29973 14.8045C9.18102 14.899 9.34911 15.065 9.46676 14.9715V14.9736Z" fill="white"/>
<path d="M10.4373 14.5672C10.3479 14.5907 10.2657 14.636 10.198 14.6991C10.1304 14.7621 10.0794 14.841 10.0497 14.9285C10.0093 15.0247 9.99567 15.1301 10.0101 15.2334C10.0245 15.3367 10.0665 15.4342 10.1316 15.5157C10.3816 15.8309 10.9174 15.8309 11.2052 15.5735C11.2879 15.4999 11.3446 15.4015 11.3668 15.293C11.3889 15.1845 11.3754 15.0717 11.3281 14.9716C11.3121 14.9447 11.2862 14.9252 11.256 14.9171C11.2257 14.9091 11.1936 14.9132 11.1663 14.9285C11.14 14.9451 11.121 14.971 11.1132 15.0011C11.1054 15.0311 11.1094 15.0631 11.1243 15.0903C11.1905 15.2248 11.097 15.3781 10.9804 15.4475C10.9052 15.4891 10.8219 15.5141 10.7362 15.5208C10.6505 15.5275 10.5643 15.5158 10.4835 15.4863C10.407 15.4615 10.3413 15.4111 10.2975 15.3436C10.2537 15.276 10.2344 15.1955 10.243 15.1155C10.2493 15.0432 10.2772 14.9745 10.3231 14.9183C10.369 14.8621 10.4307 14.821 10.5003 14.8004C10.5165 14.7974 10.5319 14.7911 10.5455 14.7818C10.5591 14.7726 10.5707 14.7606 10.5794 14.7466C10.5881 14.7327 10.5939 14.7171 10.5962 14.7008C10.5986 14.6845 10.5976 14.6679 10.5932 14.652C10.5888 14.6362 10.5812 14.6214 10.5708 14.6086C10.5603 14.5959 10.5474 14.5854 10.5327 14.5779C10.5181 14.5704 10.502 14.5661 10.4856 14.5651C10.4692 14.5642 10.4527 14.5667 10.4373 14.5724V14.5672Z" fill="white"/>
<path d="M6.20069 14.2362C6.31162 14.1552 6.44216 14.1051 6.57885 14.0913C6.72247 14.0769 6.86735 14.1005 6.99904 14.1596C7.23059 14.236 7.42654 14.3939 7.55053 14.6039C7.62196 14.7384 7.82575 14.6186 7.76062 14.4842C7.5994 14.2154 7.34467 14.0157 7.04526 13.9232C6.8787 13.8566 6.69731 13.8359 6.52003 13.8633C6.34309 13.8878 6.17628 13.9605 6.03788 14.0734C5.92233 14.1732 6.0904 14.3402 6.2049 14.2404L6.20069 14.2362Z" fill="white"/>
<path d="M6.75436 14.0146C6.6947 14.0675 6.64657 14.132 6.61296 14.2043C6.57935 14.2766 6.56097 14.3551 6.55898 14.4348C6.55355 14.5883 6.60605 14.7383 6.70604 14.8549C6.90143 15.0902 7.28589 15.1365 7.55691 15.0209C7.63882 14.9888 7.70952 14.9333 7.7603 14.8615C7.81107 14.7896 7.83969 14.7044 7.84263 14.6165C7.83986 14.5871 7.82621 14.5597 7.80436 14.5399C7.7825 14.52 7.75401 14.5089 7.72446 14.5089C7.69491 14.5089 7.66643 14.52 7.64457 14.5399C7.62272 14.5597 7.60906 14.5871 7.60628 14.6165C7.60628 14.8791 7.16194 14.8801 6.99387 14.7888C6.94093 14.7605 6.89559 14.7198 6.86173 14.6702C6.82786 14.6207 6.80647 14.5637 6.79936 14.5041C6.79224 14.4445 6.79961 14.384 6.82086 14.3279C6.84211 14.2717 6.87659 14.2216 6.92138 14.1816C6.94353 14.1594 6.95598 14.1294 6.95598 14.0981C6.95598 14.0668 6.94353 14.0367 6.92138 14.0146C6.89923 13.9924 6.8692 13.98 6.83788 13.98C6.80655 13.98 6.77651 13.9924 6.75436 14.0146Z" fill="white"/>
<path d="M7.60945 14.6321C7.6021 14.8139 7.61996 14.9945 7.60945 15.1752C7.58806 15.3627 7.54032 15.5462 7.46764 15.7204C7.34439 16.0706 7.21623 16.4207 7.08317 16.7709C7.02014 16.9358 6.94977 17.0986 6.88989 17.2656C6.83165 17.4016 6.82019 17.5531 6.85732 17.6963C6.91135 17.8239 7.00784 17.929 7.13044 17.9936C7.2838 18.0986 7.44558 18.1827 7.60735 18.272C7.74181 18.3445 7.86051 18.1407 7.7271 18.0671C7.5937 17.9936 7.43297 17.9064 7.29221 17.8161C7.15145 17.7257 7.04115 17.6438 7.08212 17.4579C7.12307 17.3098 7.17612 17.1654 7.24074 17.0261C7.30377 16.8658 7.3654 16.7047 7.42562 16.5429C7.54327 16.2278 7.66197 15.9126 7.76597 15.5975C7.86997 15.2824 7.83741 14.9672 7.85001 14.6374C7.85631 14.4861 7.61996 14.4861 7.61366 14.6374L7.60945 14.6321Z" fill="white"/>
<path d="M6.76911 11.7988C7.09791 11.2736 7.77335 11.199 8.33009 11.3051C8.93621 11.4207 9.53182 11.6707 10.0886 11.9354C11.1691 12.4575 12.1773 13.1178 13.0876 13.8998C14.0613 14.7408 14.9704 15.6537 15.8073 16.631C16.0174 16.8733 16.2275 17.1184 16.4375 17.3663C16.6182 17.5764 16.7936 17.839 17.0447 17.9745C17.1511 18.0336 17.2731 18.0583 17.3941 18.0451C17.5151 18.0319 17.629 17.9816 17.7202 17.901C17.9579 17.6974 18.1734 17.4692 18.363 17.2203C18.5891 16.9707 18.7745 16.6871 18.9124 16.3799C19.0301 16.0721 19.008 15.737 19.1425 15.4345C19.3694 14.9198 19.7728 14.4565 19.6824 13.8588C19.6593 13.7096 19.4324 13.7727 19.4545 13.9218C19.5312 14.4355 19.1246 14.8914 18.9292 15.3336C18.8795 15.4427 18.8404 15.5563 18.8126 15.6729C18.7769 15.8295 18.7706 15.9881 18.7349 16.1467C18.6656 16.4618 18.4618 16.7213 18.2695 16.9661C18.0821 17.2065 17.8782 17.4336 17.6592 17.6457C17.5542 17.7507 17.4323 17.8474 17.2779 17.8211C17.1411 17.7821 17.0199 17.7013 16.9313 17.59C16.7212 17.3694 16.5342 17.1247 16.3356 16.8936C16.1371 16.6625 15.9249 16.4177 15.7148 16.1824C14.1013 14.3735 12.2725 12.6739 10.0423 11.6654C9.43833 11.3923 8.78179 11.1181 8.12 11.0499C7.53174 10.9889 6.89412 11.1707 6.56428 11.6917C6.48234 11.8209 6.68717 11.9396 6.76806 11.8114L6.76911 11.7988Z" fill="white"/>
<path d="M12.8366 7.27688C13.7925 7.68866 14.7495 8.12355 15.6603 8.62882C16.097 8.89095 16.5109 9.18928 16.8977 9.52066C17.2727 9.81899 17.6425 10.1236 17.9944 10.4482C18.3975 10.8133 18.7644 11.2164 19.09 11.652C19.1793 11.7728 19.3852 11.652 19.3001 11.5323C18.7202 10.7444 17.9912 10.0942 17.2328 9.48389C16.8527 9.15818 16.4542 8.85446 16.0395 8.57419C15.5803 8.30038 15.1061 8.05244 14.6192 7.83152C14.073 7.5661 13.5205 7.31329 12.9616 7.07309C12.823 7.01426 12.7032 7.217 12.8419 7.27688H12.8366Z" fill="white"/>
<path d="M16.8536 17.7706C16.7485 18.008 16.6435 18.2454 16.5143 18.4733C16.3998 18.6834 16.2769 18.9082 16.0552 19.0154C15.8336 19.1225 15.5605 19.1582 15.364 19.007C15.1777 18.8562 15.0255 18.6675 14.9176 18.4534C14.8451 18.32 14.6413 18.4387 14.7075 18.5731C14.8367 18.8239 15.0196 19.043 15.2432 19.215C15.4775 19.3841 15.7832 19.3631 16.0447 19.2706C16.3063 19.1782 16.488 18.9723 16.6351 18.7276C16.7914 18.4558 16.9317 18.1752 17.0553 17.8872C17.1173 17.7496 16.9135 17.6288 16.8515 17.7674L16.8536 17.7706Z" fill="white"/>
<path d="M14.6381 19.9938C14.7579 19.6849 14.9362 19.402 15.1634 19.1608C15.3861 18.9433 15.6697 18.8141 15.946 18.8667C16.1222 18.9122 16.2876 18.9926 16.4323 19.103C16.5313 19.1625 16.617 19.2415 16.6844 19.3352C16.7459 19.4446 16.7898 19.563 16.8147 19.686C16.8966 19.9463 16.9203 20.2213 16.884 20.4917C16.8532 20.6258 16.8029 20.7546 16.7349 20.8741C16.6445 21.0567 16.52 21.2203 16.3682 21.3563C16.2718 21.4345 16.1618 21.4943 16.0437 21.5327C15.8507 21.5934 15.645 21.6012 15.448 21.5552C15.251 21.5091 15.07 21.4111 14.9239 21.2712C14.8572 21.2125 14.7989 21.145 14.7505 21.0705C14.6501 20.8955 14.5851 20.7024 14.5594 20.5022C14.5442 20.4283 14.5399 20.3526 14.5468 20.2774C14.5709 20.082 14.7201 19.9549 14.781 19.7732" fill="black"/>
<path d="M14.74 20.0533C14.9207 19.6394 15.1875 19.1173 15.6633 18.9944C15.9217 18.9272 16.1444 19.0511 16.3545 19.1919C16.4614 19.2531 16.5505 19.341 16.6129 19.4471C16.6644 19.5631 16.7017 19.6847 16.7243 19.8096C16.7873 20.0774 16.823 20.3516 16.7243 20.6163C16.64 20.8558 16.4999 21.0719 16.3157 21.2466C15.9543 21.568 15.3944 21.5186 15.0394 21.2172C14.8399 21.0336 14.7128 20.7847 14.6811 20.5155C14.647 20.3854 14.6624 20.2473 14.7242 20.1278C14.7891 20.0247 14.8463 19.9169 14.8954 19.8053C14.949 19.6625 14.72 19.6005 14.6675 19.7423C14.6234 19.861 14.5393 19.9598 14.4868 20.0743C14.4281 20.2061 14.4112 20.3527 14.4385 20.4945C14.4662 20.7912 14.5847 21.0721 14.7778 21.2991C14.9661 21.5023 15.2161 21.6379 15.4891 21.6848C15.7622 21.7317 16.043 21.6873 16.2884 21.5586C16.5383 21.3988 16.7362 21.1695 16.8577 20.8989C17.0032 20.6193 17.0526 20.2996 16.9985 19.9892C16.9543 19.7066 16.8934 19.3589 16.6833 19.1488C16.4733 18.9357 16.2019 18.7935 15.907 18.7423C15.2137 18.6667 14.7715 19.3915 14.5414 19.9335C14.4816 20.0722 14.6854 20.1919 14.7452 20.0533H14.74Z" fill="white"/>
<path d="M9.83543 13.8859C10.1044 13.8476 10.3774 13.8476 10.6464 13.8859C10.6756 13.8913 10.7058 13.8856 10.7309 13.8698C10.7561 13.8541 10.7744 13.8295 10.7824 13.8009C10.7903 13.7722 10.7872 13.7417 10.7737 13.7152C10.7602 13.6888 10.7372 13.6684 10.7094 13.658C10.3987 13.6133 10.0831 13.6133 9.77241 13.658C9.74246 13.6666 9.71709 13.6866 9.70177 13.7137C9.68644 13.7408 9.68238 13.7729 9.69048 13.803C9.6993 13.8328 9.71929 13.8581 9.7463 13.8735C9.77331 13.889 9.80523 13.8934 9.83543 13.8859Z" fill="white"/>
<path d="M6.87939 13.2453C6.98872 13.3001 7.09403 13.3626 7.19453 13.4322L7.2649 13.4827L7.28697 13.4995L7.29642 13.5058C7.28697 13.4995 7.30482 13.5121 7.30587 13.5142L7.32268 13.5268C7.37205 13.5667 7.42038 13.6077 7.4666 13.6507C7.48874 13.6729 7.51879 13.6853 7.55011 13.6853C7.58143 13.6853 7.61147 13.6729 7.63362 13.6507C7.65576 13.6286 7.66821 13.5985 7.66821 13.5672C7.66821 13.5359 7.65576 13.5059 7.63362 13.4837C7.44336 13.307 7.22904 13.1581 6.99704 13.0415C6.97027 13.0289 6.93978 13.0268 6.91154 13.0356C6.8833 13.0444 6.85934 13.0633 6.84436 13.0888C6.82938 13.1143 6.82446 13.1445 6.83055 13.1734C6.83664 13.2024 6.85331 13.228 6.87729 13.2453H6.87939Z" fill="white"/>
<path d="M12.0971 23.4581C11.4605 23.8173 10.7756 24.0747 10.0949 24.3384C9.39425 24.6104 8.69463 24.8877 7.98767 25.1451C6.5706 25.6598 5.11047 26.0149 3.64613 26.3657C2.83097 26.5611 2.01686 26.7597 1.21221 26.996C1.01787 27.0527 1.10086 27.3574 1.29625 27.2996C2.74483 26.8794 4.22494 26.5716 5.68507 26.1882C7.14521 25.8048 8.57279 25.2649 9.99196 24.7176C10.7588 24.4192 11.5382 24.1377 12.2567 23.7322C12.2928 23.7111 12.319 23.6764 12.3296 23.6359C12.3401 23.5955 12.3341 23.5525 12.3129 23.5164C12.2918 23.4803 12.2571 23.4541 12.2166 23.4436C12.1762 23.433 12.1332 23.439 12.0971 23.4602V23.4581Z" fill="white"/>
<path d="M21.1457 9.66991C22.3553 10.9424 23.3941 12.3669 24.2362 13.9075C24.65 14.6806 24.9021 15.5399 25.1049 16.3897C25.2908 17.1691 25.4725 17.957 25.9946 18.5957C26.5629 19.2869 27.3865 19.7512 28.1712 20.1524C28.3518 20.2449 28.5115 19.9728 28.3308 19.8793C27.626 19.518 26.9043 19.1156 26.3581 18.5326C25.8118 17.9496 25.6102 17.167 25.4284 16.396C25.2299 15.5556 24.9862 14.7079 24.5996 13.9316C24.2122 13.1758 23.7665 12.4512 23.2666 11.7645C22.6878 10.95 22.0543 10.1758 21.3705 9.44721C21.2318 9.2991 21.0091 9.52179 21.1478 9.66991H21.1457Z" fill="white"/>
<path d="M28.0189 0.180102C27.5829 0.307208 27.1092 0.295658 26.6533 0.36919C26.6046 0.372241 26.5579 0.389394 26.5188 0.418558C26.5017 0.439237 26.489 0.463304 26.4818 0.489188C26.4746 0.515071 26.4729 0.542188 26.4768 0.568773C26.4871 1.08264 26.5243 1.59561 26.5882 2.1056C26.5895 2.12926 26.5963 2.15229 26.6081 2.17283C26.6501 2.2327 26.7531 2.22115 26.8329 2.20539C27.0473 2.16338 27.266 2.14751 27.4842 2.15812C27.729 2.16967 27.9905 2.21065 28.2059 2.1098C28.2823 2.07104 28.3499 2.01672 28.4042 1.95033C28.4584 1.88394 28.4982 1.80694 28.521 1.72428C28.5591 1.56587 28.5722 1.40248 28.5599 1.24002L28.541 0.479487C28.5447 0.419114 28.5331 0.358775 28.5073 0.304062C28.4307 0.172754 28.2248 0.149644 28.0546 0.159098" fill="black"/>
<path d="M27.978 0.027554C27.6945 0.0976876 27.405 0.141293 27.1134 0.15781C26.9842 0.169365 26.8561 0.181967 26.7269 0.199825C26.5977 0.217682 26.4453 0.233441 26.3676 0.359497C26.3014 0.464543 26.3224 0.609509 26.3256 0.730312C26.3256 0.878427 26.3371 1.02759 26.3466 1.17571C26.3655 1.48034 26.3928 1.78392 26.4306 2.0854C26.4297 2.14676 26.4484 2.20682 26.4839 2.25687C26.5194 2.30692 26.5699 2.34437 26.6281 2.36378C26.7573 2.39949 26.897 2.35012 27.0241 2.33331C27.2994 2.29654 27.5662 2.33331 27.8403 2.33331C27.9649 2.3415 28.0897 2.32212 28.2059 2.27655C28.3221 2.23097 28.4269 2.16033 28.5126 2.06965C28.6933 1.85956 28.7227 1.58539 28.7227 1.31542C28.7227 1.1568 28.7154 1.00028 28.7122 0.839558C28.7179 0.675389 28.7109 0.51103 28.6912 0.347943C28.6345 0.0517133 28.3141 -0.0102626 28.0609 0.00129251C27.8582 0.0107466 27.8572 0.325885 28.0609 0.316431C28.1438 0.307033 28.2277 0.314169 28.3078 0.337435C28.3971 0.371049 28.3887 0.433032 28.3908 0.52022C28.3971 0.759725 28.4034 1.00028 28.4086 1.23978C28.4086 1.43517 28.4234 1.64736 28.311 1.81754C28.1986 1.98771 28.0137 2.02027 27.8246 2.01817C27.6092 2.01817 27.396 1.98876 27.1796 2.00347C27.0634 2.01154 26.9476 2.02592 26.833 2.04653C26.8004 2.05284 26.7552 2.04654 26.7279 2.06019C26.7006 2.07385 26.7531 2.05389 26.7489 2.06019C26.7486 2.0195 26.7436 1.97897 26.7342 1.93939C26.7069 1.69708 26.6852 1.45442 26.6691 1.21142C26.6617 1.09692 26.6565 0.981371 26.6512 0.866871C26.6512 0.813297 26.6512 0.76182 26.6512 0.705096C26.6434 0.647235 26.6434 0.588583 26.6512 0.530722C26.6134 0.545428 26.6512 0.513915 26.6512 0.530722C26.6763 0.522199 26.7025 0.517247 26.729 0.516014C26.7909 0.505509 26.8529 0.498158 26.9149 0.491856C27.0431 0.477149 27.1712 0.466647 27.2983 0.455092C27.5601 0.436937 27.8196 0.39474 28.0736 0.329036C28.1119 0.316397 28.144 0.289512 28.1631 0.253931C28.1822 0.21835 28.1869 0.17679 28.1762 0.137832C28.1656 0.098874 28.1404 0.0654892 28.1058 0.0445765C28.0713 0.0236638 28.03 0.0168191 27.9906 0.025451L27.978 0.027554Z" fill="white"/>
<path d="M0.224755 36.7822C0.361315 37.1929 0.348715 37.6394 0.427499 38.0658C0.427211 38.0917 0.43286 38.1173 0.444002 38.1406C0.455145 38.1639 0.471478 38.1844 0.491768 38.2004C0.512058 38.2165 0.535759 38.2276 0.561038 38.2331C0.586317 38.2385 0.612504 38.2381 0.637591 38.2318C1.18803 38.2224 1.73847 38.1866 2.28576 38.1268C2.31101 38.1259 2.33576 38.1194 2.35825 38.1079C2.42232 38.0679 2.40971 37.9713 2.39291 37.8978C2.34797 37.6966 2.33066 37.4902 2.34143 37.2843C2.35404 37.0542 2.39816 36.8074 2.28996 36.6057C2.24484 36.5305 2.18488 36.4652 2.11372 36.414C2.04257 36.3627 1.96171 36.3264 1.87609 36.3074C1.70601 36.2711 1.53175 36.2584 1.35821 36.2696L0.543047 36.2874C0.478702 36.2837 0.414361 36.2948 0.355011 36.32C0.213199 36.3914 0.18904 36.5847 0.199545 36.7402" fill="black"/>
<path d="M0.0725 36.823C0.150658 37.1036 0.199244 37.3916 0.217464 37.6823C0.240574 37.8987 0.22376 38.2926 0.486375 38.3714C0.608964 38.3945 0.734369 38.3988 0.858242 38.384C1.01791 38.384 1.17338 38.3725 1.33621 38.363C1.63979 38.3462 1.94336 38.3231 2.2459 38.2895C2.3751 38.2748 2.49906 38.2475 2.54843 38.1109C2.5978 37.9743 2.54843 37.8577 2.52427 37.7338C2.477 37.446 2.53688 37.1665 2.52427 36.8787C2.52222 36.7545 2.48915 36.6327 2.42806 36.5244C2.36697 36.4162 2.2798 36.3249 2.17447 36.2589C1.94442 36.1171 1.66814 36.1056 1.40553 36.1108C1.23535 36.1108 1.06413 36.1182 0.893954 36.1213C0.726611 36.1124 0.558804 36.1198 0.392895 36.1434C0.113473 36.2064 0.0367874 36.4921 0.0493929 36.7443C0.0588471 36.947 0.375035 36.948 0.364531 36.7443C0.355538 36.6713 0.361972 36.5972 0.383432 36.5268C0.420198 36.4333 0.506336 36.4449 0.593524 36.4428L1.32255 36.427C1.53264 36.427 1.75428 36.406 1.94652 36.4943C2.0305 36.5312 2.10096 36.5932 2.14818 36.6719C2.19541 36.7505 2.21707 36.8419 2.21018 36.9333C2.21018 37.1434 2.17867 37.3535 2.19442 37.571C2.20351 37.6878 2.22001 37.8039 2.2438 37.9187C2.24584 37.9383 2.24971 37.9576 2.25536 37.9765C2.27742 38.0164 2.23854 37.9764 2.27321 37.9849L2.28897 37.9691L2.2291 37.9765L2.12405 37.987C1.63564 38.041 1.14479 38.0701 0.653407 38.0741C0.634592 38.0768 0.615493 38.0768 0.596678 38.0741C0.596678 38.0741 0.619788 38.0962 0.596678 38.0657C0.578591 38.0137 0.569012 37.9591 0.568314 37.904C0.549406 37.7769 0.537859 37.6487 0.524203 37.5206C0.505582 37.2566 0.459096 36.9953 0.385535 36.7411C0.323558 36.5489 0.0189219 36.6361 0.080899 36.8241L0.0725 36.823Z" fill="white"/>
<path d="M23.5461 29.0843L21.9861 28.3962V33.1769L22.254 33.4458L20.8117 34.9049L19.3526 33.4626L19.9052 32.909L19.5533 32.7914V22.7773C19.5557 22.6582 19.5331 22.5399 19.487 22.4301C19.4408 22.3203 19.3721 22.2214 19.2854 22.1397L19.319 22.0557L21.63 22.978L23.4253 22.0557L26.3771 23.4486C26.2268 25.3394 26.2436 28.1116 26.4443 29.0843H23.5461ZM23.9662 27.558C23.8486 26.8699 23.815 24.8572 23.8822 23.9013L21.9914 24.8404V27.8258L23.9662 27.558Z" fill="#FF5500"/>
<path d="M31.9445 23.432L32.3973 23.6159V33.1751L32.6662 33.444L31.2229 34.9031L29.7638 33.4608L30.3174 32.9072L29.9654 32.7895V23.2808C29.9739 23.0849 29.9079 22.8931 29.7806 22.744C29.4791 22.5591 29.1766 22.3585 28.9087 22.224V22.14C29.4119 22.3417 29.4455 22.4415 29.9991 22.2744C30.2837 22.1904 30.5695 22.0728 30.8709 22.0728C31.1062 22.0728 33.203 23.0959 33.454 23.2808L33.4372 23.348C33.3028 23.2976 33.1693 23.1799 33.0517 23.1799C32.6662 23.1799 32.3132 23.348 31.9445 23.432Z" fill="white"/>
<path d="M42.1434 34.7694L39.7105 33.8975V24.0179C38.9149 23.9428 38.1318 23.7681 37.3796 23.4979V33.1769L37.6474 33.4458L36.2052 34.9049L34.7461 33.4626L35.2997 32.909L34.9467 32.7914V22.7773C34.9491 22.6582 34.9265 22.5399 34.8804 22.4301C34.8342 22.3203 34.7656 22.2214 34.6788 22.1397L34.7125 22.0557L36.3564 22.7101C36.8325 22.8399 37.3223 22.9129 37.8155 22.9276C38.4495 22.9206 39.0654 22.7157 39.5771 22.3414L42.2747 23.6156C42.2287 23.6917 42.1677 23.7578 42.0955 23.8097C42.0233 23.8617 41.9413 23.8986 41.8545 23.9181L42.1403 24.0852L42.1434 34.7694Z" fill="white"/>
<path d="M53.1805 34.3007V34.6369C50.6311 34.6369 49.6752 33.8312 48.3327 31.1977C47.7623 32.6904 47.444 34.5361 45.7496 34.8039L43.5352 33.9289V33.66C44.6592 33.4089 45.4145 32.9394 45.8672 31.8658C46.236 31.0254 46.2023 30.2722 46.4545 29.2491L47.7455 29.8531C46.7391 27.6723 46.7559 27.2522 45.7496 23.6459C45.2464 23.7972 45.2128 24.0315 44.9092 24.4684L43.4995 23.4117V23.3781C43.8525 22.6427 44.5227 22.2037 45.2611 22.0524L47.8946 22.8928L48.5827 26.5326C48.9178 25.8614 50.1258 22.2551 50.8811 22.0156L53.1785 23.0388V23.1438C52.6249 23.1438 51.8706 24.8718 51.6689 25.2741C51.0985 26.4654 50.713 27.7406 50.4777 28.2154L49.0207 27.5211C49.7424 30.0065 51.7215 33.3952 53.1805 34.3007Z" fill="white"/>
<path d="M57.022 23.432L57.4748 23.6159V33.1751L57.7437 33.444L56.3004 34.9031L54.8413 33.4608L55.3949 32.9072L55.043 32.7895V23.2808C55.0514 23.0849 54.9854 22.8931 54.8581 22.744C54.5566 22.5591 54.2541 22.3585 53.9862 22.224V22.14C54.4894 22.3417 54.523 22.4415 55.0766 22.2744C55.3613 22.1904 55.647 22.0728 55.9485 22.0728C56.1838 22.0728 58.2805 23.0959 58.5315 23.2808L58.5147 23.348C58.3803 23.2976 58.2469 23.1799 58.1292 23.1799C57.7437 23.1799 57.3907 23.348 57.022 23.432Z" fill="white"/>
<path d="M64.7682 24.2196V33.1768L65.0172 33.4458L63.6779 34.9048L62.3228 33.4626L62.8364 32.909L62.5097 32.7913V23.8677C62.7766 23.792 64.5319 23.8971 64.7682 24.2196Z" fill="white"/>
<path d="M68.2116 22.2151L67.2168 24.211C67.0215 24.5976 66.6485 24.8014 66.2714 24.7194L64.4552 24.3539L63.4604 24.1711L60.9593 23.7456C60.6975 23.6978 60.4277 23.7238 60.1799 23.8209C59.9322 23.9179 59.7164 24.0821 59.5569 24.295L59.3468 24.5598L60.3059 22.1374C60.365 21.9745 60.4784 21.837 60.6271 21.748C60.7758 21.659 60.9506 21.624 61.1221 21.6489L66.8429 22.7246C67.1121 22.7806 67.3924 22.7293 67.6244 22.5817L68.2116 22.2151Z" fill="white"/>
<path d="M81.3714 28.9756L80.9418 28.8376C81.1652 28.7514 81.3199 28.6306 81.4917 28.4064L79.4123 27.3714C79.0686 27.6647 77.625 27.8889 77.0751 27.8889V23.887L76.6111 23.611C77.161 23.7835 78.6046 24.1457 79.481 24.0077C80.3575 23.8697 81.0449 23.5247 81.4917 23.0072L79.6013 21.8687C79.3779 22.3172 77.8828 22.438 76.886 22.4897C76.1127 22.5242 75.3394 22.369 74.2395 22.1792V22.3517C74.4114 22.4207 74.5832 22.5242 74.5832 22.7657V28.1821L77.2813 29.3551C77.4188 29.4241 78.6733 29.2861 78.8795 29.2344V33.6503C77.9515 33.3743 77.0235 33.2363 76.4908 33.2363C75.5112 33.2363 74.5488 33.5641 74.3082 33.9781V34.0471C75.0816 34.4093 75.8549 34.7543 76.6111 35.1338C76.9376 34.5646 78.8795 34.3403 79.4982 34.3921C80.22 34.4611 80.8043 34.6163 81.3027 34.8578L81.3714 34.7198V28.9756Z" fill="white"/>
<path d="M90.5334 22.783L89.021 21.3857C88.3164 21.955 83.3499 21.8687 81.6829 21.7997V22.1275C82.5422 22.7657 83.8483 23.3867 84.8622 23.7317V32.9086L85.2231 33.0293L84.656 33.5986L86.1511 35.0821L87.629 33.5813L87.3541 33.3053V24.094C88.4367 24.025 89.4335 23.5937 90.5334 22.783Z" fill="white"/>
<path d="M98.8258 33.5813L98.5509 33.3053V22.9555L95.8184 21.8687L95.784 21.955C95.9731 22.162 96.059 22.3345 96.059 22.6105V31.8218L94.0139 33.1156L93.653 32.9258C93.9796 32.3566 94.203 31.7011 94.203 31.2699C94.203 29.8036 93.6874 27.4404 93.5327 25.5774C93.4296 24.4044 93.9108 23.0417 94.4779 22.8865L91.9173 21.8515C91.5392 22.1447 90.9549 23.4902 90.9549 24.7667C90.9549 26.6814 91.6939 29.4414 91.6595 30.8731C91.6423 31.7528 91.7111 32.1151 91.2471 32.7188L95.1825 34.8233L96.3511 34.0988L97.3479 35.0821L98.8258 33.5813Z" fill="white"/>
<path d="M107.448 31.6666C107.448 29.6656 107.173 27.7337 107.173 25.6982C107.173 24.1802 107.448 23.3177 107.448 23.3177L104.268 21.8515C103.959 22.3 103.478 22.6277 103.1 22.645C102.43 22.6795 101.639 22.5415 100.35 22.093L99.8002 21.8687L99.7658 21.955C99.9548 22.162 100.041 22.3345 100.041 22.6105V32.9086L100.402 33.0293L99.8345 33.5986L101.33 35.0821L102.034 34.3748C102.515 34.6853 103.22 34.8061 104.286 34.8061C105.987 34.8061 107.448 33.3398 107.448 31.6666ZM102.533 33.3053V23.5247L102.773 23.5765C103.323 23.6972 104.028 23.7145 104.801 23.5765C104.423 26.1467 104.921 29.0274 104.887 31.3044C104.87 32.7706 104.337 33.2881 103.289 33.4606C103.065 33.4951 102.842 33.4778 102.653 33.4261L102.533 33.3053Z" fill="white"/>
<path d="M112.293 23.0245C112.413 23.0245 112.551 23.1452 112.688 23.197L112.706 23.128C112.448 22.9382 110.3 21.886 110.059 21.886C109.75 21.886 109.458 22.0067 109.165 22.093C108.598 22.2655 108.564 22.162 108.048 21.955V22.0412C108.323 22.1792 108.633 22.3862 108.942 22.576C109.079 22.7485 109.131 22.9037 109.131 23.128V32.9086L109.492 33.0293L108.925 33.5986L110.42 35.0821L111.898 33.5813L111.623 33.3053V23.473L111.159 23.2832C111.537 23.197 111.898 23.0245 112.293 23.0245Z" fill="white"/>
<path d="M121.696 31.6666C121.696 29.6656 121.421 27.7337 121.421 25.6982C121.421 24.1802 121.696 23.3177 121.696 23.3177L118.516 21.8515C118.156 22.3 117.279 22.6277 116.832 22.645C116.145 22.6795 115.337 22.5242 113.997 22.0585L113.739 22.2482C114.186 22.5415 114.581 22.8175 115.028 23.0417L113.945 22.714C114.014 23.0245 113.859 23.3695 113.67 24.0595C112.914 26.8194 112.777 33.6503 116.454 34.6508C117.245 34.8751 118.035 34.8061 118.19 34.8061C119.977 34.8061 121.696 33.3398 121.696 31.6666ZM116.506 23.5765C117.056 23.6972 118.207 23.7145 119.049 23.5765C118.671 26.1467 119.135 29.0274 119.135 31.3044C119.135 33.1846 116.953 33.8746 116.282 31.9253C115.629 30.0279 115.647 26.9919 116.111 25.0599C116.196 24.7494 116.523 23.887 116.403 23.5592C116.42 23.5592 116.437 23.5592 116.437 23.5592L116.489 23.5765H116.506Z" fill="white"/>
<circle cx="67.8237" cy="33.5043" r="1.42572" fill="white"/>
</svg>
